<svg xmlns="http://www.w3.org/2000/svg" xmlns:xlink="http://www.w3.org/1999/xlink" width="1103" zoomAndPan="magnify" viewBox="0 0 827.25 497.999982" height="664" preserveAspectRatio="xMidYMid meet" version="1.0"><defs><g/><clipPath id="cc3a87eec8"><path d="M 293 179 L 362 179 L 362 324 L 293 324 Z M 293 179 " clip-rule="nonzero"/></clipPath><clipPath id="05906267ff"><path d="M 327.496094 171.917969 L 377.625 191.871094 L 320.816406 334.59375 L 270.691406 314.640625 Z M 327.496094 171.917969 " clip-rule="nonzero"/></clipPath><clipPath id="e4975b3b3b"><path d="M 327.496094 171.917969 L 377.625 191.871094 L 320.816406 334.59375 L 270.691406 314.640625 Z M 327.496094 171.917969 " clip-rule="nonzero"/></clipPath><clipPath id="d757f969d3"><path d="M 132 228 L 449 228 L 449 318 L 132 318 Z M 132 228 " clip-rule="nonzero"/></clipPath><clipPath id="35ada43155"><path d="M 135.609375 224.652344 L 449.34375 236.703125 L 445.777344 329.550781 L 132.042969 317.5 Z M 135.609375 224.652344 " clip-rule="nonzero"/></clipPath><clipPath id="f546befab6"><path d="M 135.609375 224.652344 L 449.34375 236.703125 L 445.777344 329.550781 L 132.042969 317.5 Z M 135.609375 224.652344 " clip-rule="nonzero"/></clipPath><clipPath id="5f2b17ef5f"><path d="M 121.273438 240.171875 L 448.726562 240.171875 L 448.726562 337.585938 L 121.273438 337.585938 Z M 121.273438 240.171875 " clip-rule="nonzero"/></clipPath><clipPath id="d6063883d1"><rect x="0" width="722" y="0" height="137"/></clipPath><clipPath id="25dae1d2cd"><path d="M 0.457031 39 L 16 39 L 16 56 L 0.457031 56 Z M 0.457031 39 " clip-rule="nonzero"/></clipPath><clipPath id="58a20cf332"><rect x="0" width="330" y="0" height="62"/></clipPath></defs><g clip-path="url(#cc3a87eec8)"><g clip-path="url(#05906267ff)"><g clip-path="url(#e4975b3b3b)"><path fill="#b0873a" d="M 341.722656 251.324219 C 342.425781 251.605469 343.246094 251.273438 343.535156 250.546875 L 347.199219 241.339844 L 353.035156 243.664062 C 354.796875 244.363281 356.789062 243.507812 357.492188 241.742188 L 359.988281 235.46875 C 360.691406 233.707031 359.832031 231.710938 358.070312 231.011719 L 349.617188 227.648438 L 357.304688 208.332031 C 357.59375 207.605469 357.25 206.808594 356.523438 206.519531 L 354.710938 205.796875 L 361.714844 188.191406 C 361.996094 187.492188 361.636719 186.65625 360.9375 186.378906 L 343.019531 179.25 C 342.320312 178.96875 341.488281 179.328125 341.207031 180.027344 L 334.203125 197.632812 L 332.359375 196.902344 C 331.660156 196.621094 330.835938 196.957031 330.546875 197.679688 L 322.859375 216.996094 L 314.460938 213.652344 C 312.695312 212.953125 310.703125 213.808594 310 215.574219 L 307.503906 221.847656 C 306.800781 223.609375 307.660156 225.605469 309.425781 226.304688 L 315.257812 228.628906 L 311.59375 237.832031 C 311.304688 238.558594 311.675781 239.367188 312.375 239.644531 L 316.757812 241.386719 L 315.34375 244.941406 L 314.902344 244.765625 C 313.035156 244.023438 310.894531 244.941406 310.152344 246.808594 C 309.410156 248.675781 310.332031 250.816406 312.199219 251.558594 L 312.640625 251.734375 L 311.226562 255.285156 L 310.785156 255.109375 C 308.917969 254.367188 306.777344 255.289062 306.035156 257.15625 C 305.28125 259.046875 306.214844 261.160156 308.082031 261.902344 L 308.417969 262.039062 L 303.359375 274.742188 C 303.082031 275.441406 303.414062 276.265625 304.140625 276.554688 L 305.621094 277.140625 L 305.195312 278.207031 L 303.71875 277.617188 C 302.992188 277.328125 302.195312 277.671875 301.90625 278.398438 L 298.171875 287.78125 C 298.148438 287.835938 298.15625 287.898438 298.132812 287.949219 C 298.113281 288 298.121094 288.0625 298.097656 288.113281 C 298.082031 288.378906 298.089844 288.589844 298.183594 288.808594 L 298.171875 288.835938 L 300.738281 294.839844 L 295.9375 306.898438 C 295.648438 307.625 296.019531 308.429688 296.71875 308.710938 L 297.550781 309.039062 L 293.90625 318.191406 C 293.761719 318.554688 293.769531 318.917969 293.898438 319.269531 L 295.328125 322.542969 C 295.457031 322.894531 295.742188 323.160156 296.082031 323.292969 C 296.417969 323.425781 296.808594 323.433594 297.144531 323.265625 L 300.429688 321.871094 C 300.769531 321.703125 301.019531 321.445312 301.164062 321.082031 L 304.808594 311.929688 L 305.636719 312.261719 C 306.339844 312.539062 307.160156 312.207031 307.449219 311.480469 L 312.25 299.421875 L 318.238281 296.820312 L 318.25 296.796875 C 318.46875 296.703125 318.617188 296.550781 318.789062 296.351562 C 318.808594 296.296875 318.855469 296.257812 318.875 296.203125 C 318.898438 296.152344 318.945312 296.109375 318.964844 296.058594 L 322.699219 286.671875 C 322.988281 285.949219 322.644531 285.148438 321.917969 284.859375 L 320.441406 284.273438 L 320.863281 283.210938 L 322.34375 283.796875 C 323.070312 284.085938 323.875 283.71875 324.15625 283.019531 L 329.210938 270.3125 L 329.546875 270.449219 C 331.414062 271.191406 333.542969 270.296875 334.296875 268.402344 C 335.039062 266.535156 334.117188 264.398438 332.253906 263.65625 L 331.8125 263.480469 L 333.226562 259.925781 L 333.664062 260.101562 C 335.53125 260.84375 337.671875 259.925781 338.414062 258.058594 C 339.15625 256.191406 338.234375 254.050781 336.371094 253.308594 L 335.929688 253.132812 L 337.34375 249.582031 Z M 340.292969 189.875 L 355.617188 195.976562 L 352.117188 204.765625 L 336.792969 198.664062 Z M 332.625 200.007812 L 354.195312 208.59375 L 352.894531 211.863281 L 331.324219 203.277344 Z M 351.863281 214.453125 L 347.023438 226.613281 L 341.839844 224.550781 L 346.679688 212.390625 Z M 344.085938 211.359375 L 339.265625 223.46875 L 333.25 221.074219 L 338.070312 208.964844 Z M 330.292969 205.871094 L 335.476562 207.933594 L 330.636719 220.09375 L 325.453125 218.027344 Z M 298.78125 319.53125 L 297.328125 320.15625 L 296.707031 318.707031 L 300.140625 310.070312 L 302.214844 310.898438 Z M 305.375 309.152344 L 299.046875 306.632812 L 303.03125 296.625 L 309.355469 299.144531 Z M 311.140625 296.851562 L 303.3125 293.734375 L 302.0625 290.832031 L 314.039062 295.601562 Z M 319.589844 286.9375 L 316.886719 293.730469 L 301.28125 287.519531 L 303.984375 280.726562 Z M 322.078125 280.6875 L 306.46875 274.476562 L 311.011719 263.070312 L 326.617188 269.28125 Z M 331.21875 266.246094 C 331.660156 266.421875 331.878906 266.929688 331.703125 267.371094 C 331.527344 267.8125 331.019531 268.03125 330.582031 267.855469 L 309.113281 259.308594 C 308.671875 259.136719 308.453125 258.628906 308.628906 258.1875 C 308.804688 257.746094 309.3125 257.527344 309.753906 257.703125 Z M 335.335938 255.902344 C 335.777344 256.078125 335.996094 256.585938 335.820312 257.027344 C 335.644531 257.464844 335.136719 257.683594 334.699219 257.511719 L 313.230469 248.964844 C 312.789062 248.789062 312.570312 248.28125 312.746094 247.839844 C 312.921875 247.402344 313.429688 247.183594 313.871094 247.359375 Z M 317.933594 245.972656 L 319.347656 242.421875 L 334.75 248.550781 L 333.335938 252.101562 Z M 314.703125 237.566406 L 317.851562 229.660156 L 344.605469 240.308594 L 341.460938 248.21875 Z M 314.703125 237.566406 " fill-opacity="1" fill-rule="nonzero"/></g></g></g><g fill="#b0873a" fill-opacity="0.4"><g transform="translate(83.548336, 340.204126)"><g><path d="M 154.171875 -42.09375 L 154.171875 0 L 8.046875 0 L 8.046875 -33.25 L 78.296875 -98.9375 C 85.085938 -105.375 89.644531 -110.867188 91.96875 -115.421875 C 94.289062 -119.984375 95.453125 -124.585938 95.453125 -129.234375 C 95.453125 -135.316406 93.394531 -140.054688 89.28125 -143.453125 C 85.175781 -146.847656 79.191406 -148.546875 71.328125 -148.546875 C 64.347656 -148.546875 57.953125 -146.976562 52.140625 -143.84375 C 46.335938 -140.71875 41.5625 -136.207031 37.8125 -130.3125 L -1.609375 -152.296875 C 5.722656 -164.453125 16 -174.015625 29.21875 -180.984375 C 42.445312 -187.953125 58.085938 -191.4375 76.140625 -191.4375 C 90.441406 -191.4375 103.085938 -189.113281 114.078125 -184.46875 C 125.078125 -179.820312 133.660156 -173.160156 139.828125 -164.484375 C 145.992188 -155.816406 149.078125 -145.765625 149.078125 -134.328125 C 149.078125 -124.140625 146.882812 -114.53125 142.5 -105.5 C 138.125 -96.476562 129.679688 -86.25 117.171875 -74.8125 L 81.78125 -42.09375 Z M 154.171875 -42.09375 "/></g></g></g><g fill="#b0873a" fill-opacity="0.4"><g transform="translate(243.889446, 340.204126)"><g><path d="M 91.96875 3.75 C 75.875 3.75 61.570312 -0.09375 49.0625 -7.78125 C 36.550781 -15.46875 26.765625 -26.679688 19.703125 -41.421875 C 12.640625 -56.171875 9.109375 -73.644531 9.109375 -93.84375 C 9.109375 -114.039062 12.640625 -131.507812 19.703125 -146.25 C 26.765625 -161 36.550781 -172.21875 49.0625 -179.90625 C 61.570312 -187.59375 75.875 -191.4375 91.96875 -191.4375 C 107.875 -191.4375 122.082031 -187.59375 134.59375 -179.90625 C 147.113281 -172.21875 156.898438 -161 163.953125 -146.25 C 171.015625 -131.507812 174.546875 -114.039062 174.546875 -93.84375 C 174.546875 -73.644531 171.015625 -56.171875 163.953125 -41.421875 C 156.898438 -26.679688 147.113281 -15.46875 134.59375 -7.78125 C 122.082031 -0.09375 107.875 3.75 91.96875 3.75 Z M 91.96875 -39.6875 C 100.90625 -39.6875 108.007812 -44.019531 113.28125 -52.6875 C 118.550781 -61.351562 121.1875 -75.070312 121.1875 -93.84375 C 121.1875 -112.613281 118.550781 -126.332031 113.28125 -135 C 108.007812 -143.664062 100.90625 -148 91.96875 -148 C 82.851562 -148 75.65625 -143.664062 70.375 -135 C 65.101562 -126.332031 62.46875 -112.613281 62.46875 -93.84375 C 62.46875 -75.070312 65.101562 -61.351562 70.375 -52.6875 C 75.65625 -44.019531 82.851562 -39.6875 91.96875 -39.6875 Z M 91.96875 -39.6875 "/></g></g></g><g fill="#c79a45" fill-opacity="1"><g transform="translate(77.623454, 334.279247)"><g><path d="M 154.171875 -42.09375 L 154.171875 0 L 8.046875 0 L 8.046875 -33.25 L 78.296875 -98.9375 C 85.085938 -105.375 89.644531 -110.867188 91.96875 -115.421875 C 94.289062 -119.984375 95.453125 -124.585938 95.453125 -129.234375 C 95.453125 -135.316406 93.394531 -140.054688 89.28125 -143.453125 C 85.175781 -146.847656 79.191406 -148.546875 71.328125 -148.546875 C 64.347656 -148.546875 57.953125 -146.976562 52.140625 -143.84375 C 46.335938 -140.71875 41.5625 -136.207031 37.8125 -130.3125 L -1.609375 -152.296875 C 5.722656 -164.453125 16 -174.015625 29.21875 -180.984375 C 42.445312 -187.953125 58.085938 -191.4375 76.140625 -191.4375 C 90.441406 -191.4375 103.085938 -189.113281 114.078125 -184.46875 C 125.078125 -179.820312 133.660156 -173.160156 139.828125 -164.484375 C 145.992188 -155.816406 149.078125 -145.765625 149.078125 -134.328125 C 149.078125 -124.140625 146.882812 -114.53125 142.5 -105.5 C 138.125 -96.476562 129.679688 -86.25 117.171875 -74.8125 L 81.78125 -42.09375 Z M 154.171875 -42.09375 "/></g></g></g><g fill="#c79a45" fill-opacity="1"><g transform="translate(237.964564, 334.279247)"><g><path d="M 91.96875 3.75 C 75.875 3.75 61.570312 -0.09375 49.0625 -7.78125 C 36.550781 -15.46875 26.765625 -26.679688 19.703125 -41.421875 C 12.640625 -56.171875 9.109375 -73.644531 9.109375 -93.84375 C 9.109375 -114.039062 12.640625 -131.507812 19.703125 -146.25 C 26.765625 -161 36.550781 -172.21875 49.0625 -179.90625 C 61.570312 -187.59375 75.875 -191.4375 91.96875 -191.4375 C 107.875 -191.4375 122.082031 -187.59375 134.59375 -179.90625 C 147.113281 -172.21875 156.898438 -161 163.953125 -146.25 C 171.015625 -131.507812 174.546875 -114.039062 174.546875 -93.84375 C 174.546875 -73.644531 171.015625 -56.171875 163.953125 -41.421875 C 156.898438 -26.679688 147.113281 -15.46875 134.59375 -7.78125 C 122.082031 -0.09375 107.875 3.75 91.96875 3.75 Z M 91.96875 -39.6875 C 100.90625 -39.6875 108.007812 -44.019531 113.28125 -52.6875 C 118.550781 -61.351562 121.1875 -75.070312 121.1875 -93.84375 C 121.1875 -112.613281 118.550781 -126.332031 113.28125 -135 C 108.007812 -143.664062 100.90625 -148 91.96875 -148 C 82.851562 -148 75.65625 -143.664062 70.375 -135 C 65.101562 -126.332031 62.46875 -112.613281 62.46875 -93.84375 C 62.46875 -75.070312 65.101562 -61.351562 70.375 -52.6875 C 75.65625 -44.019531 82.851562 -39.6875 91.96875 -39.6875 Z M 91.96875 -39.6875 "/></g></g></g><g clip-path="url(#d757f969d3)"><g clip-path="url(#35ada43155)"><g clip-path="url(#f546befab6)"><path fill="#ffffff" d="M 448.140625 252.136719 C 448.175781 251.175781 447.410156 250.519531 446.617188 250.488281 C 443.484375 250.367188 439.277344 272.46875 395.078125 270.769531 C 332.148438 268.355469 283.035156 230.3125 231.078125 228.320312 C 186.644531 226.613281 134.679688 256.246094 132.859375 303.625 C 132.683594 308.121094 132.976562 312.769531 133.785156 317.546875 C 133.726562 317.195312 133.703125 316.835938 133.71875 316.464844 C 133.933594 310.894531 164.179688 264.429688 232.921875 267.070312 C 286.710938 269.136719 320.3125 287.726562 370.214844 289.640625 C 415.3125 291.375 447.480469 269.277344 448.140625 252.136719 " fill-opacity="1" fill-rule="nonzero"/></g></g></g><g clip-path="url(#5f2b17ef5f)"><path fill="#c79a45" d="M 448.71875 256.339844 C 448.71875 255.332031 447.894531 254.679688 447.0625 254.679688 C 443.785156 254.679688 440.28125 277.925781 394.058594 277.925781 C 328.246094 277.925781 275.4375 240.171875 221.105469 240.171875 C 174.636719 240.171875 121.5625 273.203125 121.5625 322.75 C 121.5625 327.453125 122.050781 332.292969 123.085938 337.25 C 123.011719 336.886719 122.972656 336.507812 122.972656 336.125 C 122.972656 330.296875 152.695312 280.566406 224.582031 280.566406 C 280.832031 280.566406 316.664062 298.628906 368.851562 298.628906 C 416.015625 298.628906 448.71875 274.261719 448.71875 256.339844 " fill-opacity="1" fill-rule="nonzero"/></g><g transform="matrix(1, 0, 0, 1, 75, 328)"><g clip-path="url(#d6063883d1)"><g fill="#b0873a" fill-opacity="0.4"><g transform="translate(5.084022, 110.093107)"><g><path d="M 59.84375 -15.09375 L 26.984375 -15.09375 L 20.875 0 L -1.546875 0 L 32.75 -77.71875 L 54.40625 -77.71875 L 88.828125 0 L 65.953125 0 Z M 53.40625 -31.3125 L 43.40625 -56.1875 L 33.421875 -31.3125 Z M 53.40625 -31.3125 "/></g></g></g><g fill="#b0873a" fill-opacity="0.4"><g transform="translate(92.346749, 110.093107)"><g><path d="M 45.96875 -61.171875 C 53.445312 -61.171875 59.460938 -58.953125 64.015625 -54.515625 C 68.566406 -50.078125 70.84375 -43.378906 70.84375 -34.421875 L 70.84375 0 L 49.734375 0 L 49.734375 -30.984375 C 49.734375 -39.191406 46.441406 -43.296875 39.859375 -43.296875 C 36.234375 -43.296875 33.328125 -42.113281 31.140625 -39.75 C 28.960938 -37.382812 27.875 -33.832031 27.875 -29.09375 L 27.875 0 L 6.765625 0 L 6.765625 -60.171875 L 26.875 -60.171875 L 26.875 -53.625 C 29.238281 -56.070312 32.046875 -57.941406 35.296875 -59.234375 C 38.554688 -60.523438 42.113281 -61.171875 45.96875 -61.171875 Z M 45.96875 -61.171875 "/></g></g></g><g fill="#b0873a" fill-opacity="0.4"><g transform="translate(169.617562, 110.093107)"><g><path d="M 45.96875 -61.171875 C 53.445312 -61.171875 59.460938 -58.953125 64.015625 -54.515625 C 68.566406 -50.078125 70.84375 -43.378906 70.84375 -34.421875 L 70.84375 0 L 49.734375 0 L 49.734375 -30.984375 C 49.734375 -39.191406 46.441406 -43.296875 39.859375 -43.296875 C 36.234375 -43.296875 33.328125 -42.113281 31.140625 -39.75 C 28.960938 -37.382812 27.875 -33.832031 27.875 -29.09375 L 27.875 0 L 6.765625 0 L 6.765625 -60.171875 L 26.875 -60.171875 L 26.875 -53.625 C 29.238281 -56.070312 32.046875 -57.941406 35.296875 -59.234375 C 38.554688 -60.523438 42.113281 -61.171875 45.96875 -61.171875 Z M 45.96875 -61.171875 "/></g></g></g><g fill="#b0873a" fill-opacity="0.4"><g transform="translate(246.888386, 110.093107)"><g><path d="M 6.765625 -60.171875 L 27.875 -60.171875 L 27.875 0 L 6.765625 0 Z M 17.3125 -66.84375 C 13.46875 -66.84375 10.359375 -67.914062 7.984375 -70.0625 C 5.617188 -72.207031 4.4375 -74.875 4.4375 -78.0625 C 4.4375 -81.238281 5.617188 -83.898438 7.984375 -86.046875 C 10.359375 -88.191406 13.46875 -89.265625 17.3125 -89.265625 C 21.164062 -89.265625 24.273438 -88.242188 26.640625 -86.203125 C 29.003906 -84.171875 30.1875 -81.566406 30.1875 -78.390625 C 30.1875 -75.054688 29.003906 -72.296875 26.640625 -70.109375 C 24.273438 -67.929688 21.164062 -66.84375 17.3125 -66.84375 Z M 17.3125 -66.84375 "/></g></g></g><g fill="#b0873a" fill-opacity="0.4"><g transform="translate(281.638023, 110.093107)"><g><path d="M 70.171875 -60.171875 L 45.296875 0 L 23.53125 0 L -1.21875 -60.171875 L 20.4375 -60.171875 L 34.859375 -23.421875 L 50.078125 -60.171875 Z M 70.171875 -60.171875 "/></g></g></g><g fill="#b0873a" fill-opacity="0.4"><g transform="translate(348.805866, 110.093107)"><g><path d="M 68.28125 -29.984375 C 68.28125 -29.828125 68.171875 -28.085938 67.953125 -24.765625 L 24.203125 -24.765625 C 25.085938 -21.648438 26.804688 -19.257812 29.359375 -17.59375 C 31.921875 -15.925781 35.125 -15.09375 38.96875 -15.09375 C 41.851562 -15.09375 44.347656 -15.5 46.453125 -16.3125 C 48.566406 -17.132812 50.695312 -18.46875 52.84375 -20.3125 L 63.953125 -8.765625 C 58.109375 -2.253906 49.5625 1 38.3125 1 C 31.28125 1 25.097656 -0.332031 19.765625 -3 C 14.429688 -5.664062 10.300781 -9.363281 7.375 -14.09375 C 4.457031 -18.832031 3 -24.203125 3 -30.203125 C 3 -36.117188 4.421875 -41.425781 7.265625 -46.125 C 10.117188 -50.832031 14.0625 -54.515625 19.09375 -57.171875 C 24.125 -59.835938 29.785156 -61.171875 36.078125 -61.171875 C 42.078125 -61.171875 47.519531 -59.929688 52.40625 -57.453125 C 57.289062 -54.972656 61.15625 -51.382812 64 -46.6875 C 66.851562 -41.988281 68.28125 -36.421875 68.28125 -29.984375 Z M 36.203125 -46.1875 C 32.941406 -46.1875 30.21875 -45.257812 28.03125 -43.40625 C 25.851562 -41.5625 24.46875 -39.046875 23.875 -35.859375 L 48.515625 -35.859375 C 47.921875 -39.046875 46.53125 -41.5625 44.34375 -43.40625 C 42.164062 -45.257812 39.453125 -46.1875 36.203125 -46.1875 Z M 36.203125 -46.1875 "/></g></g></g><g fill="#b0873a" fill-opacity="0.4"><g transform="translate(420.081556, 110.093107)"><g><path d="M 26.875 -52.96875 C 29.019531 -55.695312 31.8125 -57.742188 35.25 -59.109375 C 38.695312 -60.484375 42.640625 -61.171875 47.078125 -61.171875 L 47.078125 -42.1875 C 45.148438 -42.414062 43.554688 -42.53125 42.296875 -42.53125 C 37.785156 -42.53125 34.253906 -41.304688 31.703125 -38.859375 C 29.148438 -36.421875 27.875 -32.679688 27.875 -27.640625 L 27.875 0 L 6.765625 0 L 6.765625 -60.171875 L 26.875 -60.171875 Z M 26.875 -52.96875 "/></g></g></g><g fill="#b0873a" fill-opacity="0.4"><g transform="translate(469.15294, 110.093107)"><g><path d="M 28.640625 1 C 23.609375 1 18.648438 0.425781 13.765625 -0.71875 C 8.878906 -1.863281 4.957031 -3.363281 2 -5.21875 L 8.328125 -19.65625 C 11.066406 -17.945312 14.320312 -16.59375 18.09375 -15.59375 C 21.875 -14.59375 25.613281 -14.09375 29.3125 -14.09375 C 32.71875 -14.09375 35.140625 -14.441406 36.578125 -15.140625 C 38.023438 -15.847656 38.75 -16.867188 38.75 -18.203125 C 38.75 -19.535156 37.878906 -20.476562 36.140625 -21.03125 C 34.398438 -21.59375 31.644531 -22.132812 27.875 -22.65625 C 23.0625 -23.238281 18.96875 -24.007812 15.59375 -24.96875 C 12.226562 -25.9375 9.320312 -27.71875 6.875 -30.3125 C 4.4375 -32.90625 3.21875 -36.53125 3.21875 -41.1875 C 3.21875 -45.039062 4.363281 -48.460938 6.65625 -51.453125 C 8.957031 -54.453125 12.304688 -56.820312 16.703125 -58.5625 C 21.109375 -60.300781 26.382812 -61.171875 32.53125 -61.171875 C 36.894531 -61.171875 41.222656 -60.726562 45.515625 -59.84375 C 49.816406 -58.957031 53.410156 -57.703125 56.296875 -56.078125 L 49.96875 -41.75 C 44.632812 -44.707031 38.859375 -46.1875 32.640625 -46.1875 C 29.304688 -46.1875 26.863281 -45.796875 25.3125 -45.015625 C 23.757812 -44.242188 22.984375 -43.226562 22.984375 -41.96875 C 22.984375 -40.5625 23.832031 -39.578125 25.53125 -39.015625 C 27.238281 -38.460938 30.050781 -37.894531 33.96875 -37.3125 C 38.9375 -36.570312 43.046875 -35.71875 46.296875 -34.75 C 49.554688 -33.789062 52.390625 -32.03125 54.796875 -29.46875 C 57.203125 -26.914062 58.40625 -23.347656 58.40625 -18.765625 C 58.40625 -14.992188 57.253906 -11.609375 54.953125 -8.609375 C 52.660156 -5.609375 49.273438 -3.253906 44.796875 -1.546875 C 40.316406 0.148438 34.929688 1 28.640625 1 Z M 28.640625 1 "/></g></g></g><g fill="#b0873a" fill-opacity="0.4"><g transform="translate(529.881596, 110.093107)"><g><path d="M 32.421875 -61.171875 C 42.410156 -61.171875 50.03125 -58.894531 55.28125 -54.34375 C 60.539062 -49.789062 63.171875 -42.816406 63.171875 -33.421875 L 63.171875 0 L 43.53125 0 L 43.53125 -7.765625 C 40.488281 -1.921875 34.566406 1 25.765625 1 C 21.097656 1 17.0625 0.1875 13.65625 -1.4375 C 10.25 -3.070312 7.675781 -5.273438 5.9375 -8.046875 C 4.195312 -10.828125 3.328125 -13.992188 3.328125 -17.546875 C 3.328125 -23.242188 5.507812 -27.664062 9.875 -30.8125 C 14.25 -33.957031 20.988281 -35.53125 30.09375 -35.53125 L 42.078125 -35.53125 C 41.710938 -41.894531 37.457031 -45.078125 29.3125 -45.078125 C 26.425781 -45.078125 23.5 -44.613281 20.53125 -43.6875 C 17.570312 -42.757812 15.054688 -41.484375 12.984375 -39.859375 L 5.890625 -54.1875 C 9.210938 -56.40625 13.257812 -58.125 18.03125 -59.34375 C 22.8125 -60.5625 27.609375 -61.171875 32.421875 -61.171875 Z M 31.640625 -12.328125 C 34.085938 -12.328125 36.234375 -12.914062 38.078125 -14.09375 C 39.929688 -15.28125 41.265625 -17.019531 42.078125 -19.3125 L 42.078125 -24.53125 L 32.96875 -24.53125 C 26.832031 -24.53125 23.765625 -22.5 23.765625 -18.4375 C 23.765625 -16.582031 24.46875 -15.097656 25.875 -13.984375 C 27.28125 -12.878906 29.203125 -12.328125 31.640625 -12.328125 Z M 31.640625 -12.328125 "/></g></g></g><g fill="#b0873a" fill-opacity="0.4"><g transform="translate(599.60296, 110.093107)"><g><path d="M 26.875 -52.96875 C 29.019531 -55.695312 31.8125 -57.742188 35.25 -59.109375 C 38.695312 -60.484375 42.640625 -61.171875 47.078125 -61.171875 L 47.078125 -42.1875 C 45.148438 -42.414062 43.554688 -42.53125 42.296875 -42.53125 C 37.785156 -42.53125 34.253906 -41.304688 31.703125 -38.859375 C 29.148438 -36.421875 27.875 -32.679688 27.875 -27.640625 L 27.875 0 L 6.765625 0 L 6.765625 -60.171875 L 26.875 -60.171875 Z M 26.875 -52.96875 "/></g></g></g><g fill="#b0873a" fill-opacity="0.4"><g transform="translate(650.450736, 110.093107)"><g><path d="M 70.171875 -60.171875 L 44.1875 2.4375 C 41.15625 9.84375 37.453125 15.046875 33.078125 18.046875 C 28.710938 21.046875 23.382812 22.546875 17.09375 22.546875 C 13.914062 22.546875 10.71875 22.046875 7.5 21.046875 C 4.28125 20.046875 1.671875 18.726562 -0.328125 17.09375 L 7 2.328125 C 8.175781 3.441406 9.597656 4.3125 11.265625 4.9375 C 12.929688 5.570312 14.617188 5.890625 16.328125 5.890625 C 18.316406 5.890625 19.957031 5.476562 21.25 4.65625 C 22.550781 3.84375 23.644531 2.550781 24.53125 0.78125 L -1.21875 -60.171875 L 20.4375 -60.171875 L 35.203125 -23.421875 L 50.078125 -60.171875 Z M 70.171875 -60.171875 "/></g></g></g><g fill="#c79a45" fill-opacity="1"><g transform="translate(2.630619, 107.639697)"><g><path d="M 59.84375 -15.09375 L 26.984375 -15.09375 L 20.875 0 L -1.546875 0 L 32.75 -77.71875 L 54.40625 -77.71875 L 88.828125 0 L 65.953125 0 Z M 53.40625 -31.3125 L 43.40625 -56.1875 L 33.421875 -31.3125 Z M 53.40625 -31.3125 "/></g></g></g><g fill="#c79a45" fill-opacity="1"><g transform="translate(89.893346, 107.639697)"><g><path d="M 45.96875 -61.171875 C 53.445312 -61.171875 59.460938 -58.953125 64.015625 -54.515625 C 68.566406 -50.078125 70.84375 -43.378906 70.84375 -34.421875 L 70.84375 0 L 49.734375 0 L 49.734375 -30.984375 C 49.734375 -39.191406 46.441406 -43.296875 39.859375 -43.296875 C 36.234375 -43.296875 33.328125 -42.113281 31.140625 -39.75 C 28.960938 -37.382812 27.875 -33.832031 27.875 -29.09375 L 27.875 0 L 6.765625 0 L 6.765625 -60.171875 L 26.875 -60.171875 L 26.875 -53.625 C 29.238281 -56.070312 32.046875 -57.941406 35.296875 -59.234375 C 38.554688 -60.523438 42.113281 -61.171875 45.96875 -61.171875 Z M 45.96875 -61.171875 "/></g></g></g><g fill="#c79a45" fill-opacity="1"><g transform="translate(167.164158, 107.639697)"><g><path d="M 45.96875 -61.171875 C 53.445312 -61.171875 59.460938 -58.953125 64.015625 -54.515625 C 68.566406 -50.078125 70.84375 -43.378906 70.84375 -34.421875 L 70.84375 0 L 49.734375 0 L 49.734375 -30.984375 C 49.734375 -39.191406 46.441406 -43.296875 39.859375 -43.296875 C 36.234375 -43.296875 33.328125 -42.113281 31.140625 -39.75 C 28.960938 -37.382812 27.875 -33.832031 27.875 -29.09375 L 27.875 0 L 6.765625 0 L 6.765625 -60.171875 L 26.875 -60.171875 L 26.875 -53.625 C 29.238281 -56.070312 32.046875 -57.941406 35.296875 -59.234375 C 38.554688 -60.523438 42.113281 -61.171875 45.96875 -61.171875 Z M 45.96875 -61.171875 "/></g></g></g><g fill="#c79a45" fill-opacity="1"><g transform="translate(244.434982, 107.639697)"><g><path d="M 6.765625 -60.171875 L 27.875 -60.171875 L 27.875 0 L 6.765625 0 Z M 17.3125 -66.84375 C 13.46875 -66.84375 10.359375 -67.914062 7.984375 -70.0625 C 5.617188 -72.207031 4.4375 -74.875 4.4375 -78.0625 C 4.4375 -81.238281 5.617188 -83.898438 7.984375 -86.046875 C 10.359375 -88.191406 13.46875 -89.265625 17.3125 -89.265625 C 21.164062 -89.265625 24.273438 -88.242188 26.640625 -86.203125 C 29.003906 -84.171875 30.1875 -81.566406 30.1875 -78.390625 C 30.1875 -75.054688 29.003906 -72.296875 26.640625 -70.109375 C 24.273438 -67.929688 21.164062 -66.84375 17.3125 -66.84375 Z M 17.3125 -66.84375 "/></g></g></g><g fill="#c79a45" fill-opacity="1"><g transform="translate(279.18462, 107.639697)"><g><path d="M 70.171875 -60.171875 L 45.296875 0 L 23.53125 0 L -1.21875 -60.171875 L 20.4375 -60.171875 L 34.859375 -23.421875 L 50.078125 -60.171875 Z M 70.171875 -60.171875 "/></g></g></g><g fill="#c79a45" fill-opacity="1"><g transform="translate(346.352463, 107.639697)"><g><path d="M 68.28125 -29.984375 C 68.28125 -29.828125 68.171875 -28.085938 67.953125 -24.765625 L 24.203125 -24.765625 C 25.085938 -21.648438 26.804688 -19.257812 29.359375 -17.59375 C 31.921875 -15.925781 35.125 -15.09375 38.96875 -15.09375 C 41.851562 -15.09375 44.347656 -15.5 46.453125 -16.3125 C 48.566406 -17.132812 50.695312 -18.46875 52.84375 -20.3125 L 63.953125 -8.765625 C 58.109375 -2.253906 49.5625 1 38.3125 1 C 31.28125 1 25.097656 -0.332031 19.765625 -3 C 14.429688 -5.664062 10.300781 -9.363281 7.375 -14.09375 C 4.457031 -18.832031 3 -24.203125 3 -30.203125 C 3 -36.117188 4.421875 -41.425781 7.265625 -46.125 C 10.117188 -50.832031 14.0625 -54.515625 19.09375 -57.171875 C 24.125 -59.835938 29.785156 -61.171875 36.078125 -61.171875 C 42.078125 -61.171875 47.519531 -59.929688 52.40625 -57.453125 C 57.289062 -54.972656 61.15625 -51.382812 64 -46.6875 C 66.851562 -41.988281 68.28125 -36.421875 68.28125 -29.984375 Z M 36.203125 -46.1875 C 32.941406 -46.1875 30.21875 -45.257812 28.03125 -43.40625 C 25.851562 -41.5625 24.46875 -39.046875 23.875 -35.859375 L 48.515625 -35.859375 C 47.921875 -39.046875 46.53125 -41.5625 44.34375 -43.40625 C 42.164062 -45.257812 39.453125 -46.1875 36.203125 -46.1875 Z M 36.203125 -46.1875 "/></g></g></g><g fill="#c79a45" fill-opacity="1"><g transform="translate(417.628153, 107.639697)"><g><path d="M 26.875 -52.96875 C 29.019531 -55.695312 31.8125 -57.742188 35.25 -59.109375 C 38.695312 -60.484375 42.640625 -61.171875 47.078125 -61.171875 L 47.078125 -42.1875 C 45.148438 -42.414062 43.554688 -42.53125 42.296875 -42.53125 C 37.785156 -42.53125 34.253906 -41.304688 31.703125 -38.859375 C 29.148438 -36.421875 27.875 -32.679688 27.875 -27.640625 L 27.875 0 L 6.765625 0 L 6.765625 -60.171875 L 26.875 -60.171875 Z M 26.875 -52.96875 "/></g></g></g><g fill="#c79a45" fill-opacity="1"><g transform="translate(466.699537, 107.639697)"><g><path d="M 28.640625 1 C 23.609375 1 18.648438 0.425781 13.765625 -0.71875 C 8.878906 -1.863281 4.957031 -3.363281 2 -5.21875 L 8.328125 -19.65625 C 11.066406 -17.945312 14.320312 -16.59375 18.09375 -15.59375 C 21.875 -14.59375 25.613281 -14.09375 29.3125 -14.09375 C 32.71875 -14.09375 35.140625 -14.441406 36.578125 -15.140625 C 38.023438 -15.847656 38.75 -16.867188 38.75 -18.203125 C 38.75 -19.535156 37.878906 -20.476562 36.140625 -21.03125 C 34.398438 -21.59375 31.644531 -22.132812 27.875 -22.65625 C 23.0625 -23.238281 18.96875 -24.007812 15.59375 -24.96875 C 12.226562 -25.9375 9.320312 -27.71875 6.875 -30.3125 C 4.4375 -32.90625 3.21875 -36.53125 3.21875 -41.1875 C 3.21875 -45.039062 4.363281 -48.460938 6.65625 -51.453125 C 8.957031 -54.453125 12.304688 -56.820312 16.703125 -58.5625 C 21.109375 -60.300781 26.382812 -61.171875 32.53125 -61.171875 C 36.894531 -61.171875 41.222656 -60.726562 45.515625 -59.84375 C 49.816406 -58.957031 53.410156 -57.703125 56.296875 -56.078125 L 49.96875 -41.75 C 44.632812 -44.707031 38.859375 -46.1875 32.640625 -46.1875 C 29.304688 -46.1875 26.863281 -45.796875 25.3125 -45.015625 C 23.757812 -44.242188 22.984375 -43.226562 22.984375 -41.96875 C 22.984375 -40.5625 23.832031 -39.578125 25.53125 -39.015625 C 27.238281 -38.460938 30.050781 -37.894531 33.96875 -37.3125 C 38.9375 -36.570312 43.046875 -35.71875 46.296875 -34.75 C 49.554688 -33.789062 52.390625 -32.03125 54.796875 -29.46875 C 57.203125 -26.914062 58.40625 -23.347656 58.40625 -18.765625 C 58.40625 -14.992188 57.253906 -11.609375 54.953125 -8.609375 C 52.660156 -5.609375 49.273438 -3.253906 44.796875 -1.546875 C 40.316406 0.148438 34.929688 1 28.640625 1 Z M 28.640625 1 "/></g></g></g><g fill="#c79a45" fill-opacity="1"><g transform="translate(527.428193, 107.639697)"><g><path d="M 32.421875 -61.171875 C 42.410156 -61.171875 50.03125 -58.894531 55.28125 -54.34375 C 60.539062 -49.789062 63.171875 -42.816406 63.171875 -33.421875 L 63.171875 0 L 43.53125 0 L 43.53125 -7.765625 C 40.488281 -1.921875 34.566406 1 25.765625 1 C 21.097656 1 17.0625 0.1875 13.65625 -1.4375 C 10.25 -3.070312 7.675781 -5.273438 5.9375 -8.046875 C 4.195312 -10.828125 3.328125 -13.992188 3.328125 -17.546875 C 3.328125 -23.242188 5.507812 -27.664062 9.875 -30.8125 C 14.25 -33.957031 20.988281 -35.53125 30.09375 -35.53125 L 42.078125 -35.53125 C 41.710938 -41.894531 37.457031 -45.078125 29.3125 -45.078125 C 26.425781 -45.078125 23.5 -44.613281 20.53125 -43.6875 C 17.570312 -42.757812 15.054688 -41.484375 12.984375 -39.859375 L 5.890625 -54.1875 C 9.210938 -56.40625 13.257812 -58.125 18.03125 -59.34375 C 22.8125 -60.5625 27.609375 -61.171875 32.421875 -61.171875 Z M 31.640625 -12.328125 C 34.085938 -12.328125 36.234375 -12.914062 38.078125 -14.09375 C 39.929688 -15.28125 41.265625 -17.019531 42.078125 -19.3125 L 42.078125 -24.53125 L 32.96875 -24.53125 C 26.832031 -24.53125 23.765625 -22.5 23.765625 -18.4375 C 23.765625 -16.582031 24.46875 -15.097656 25.875 -13.984375 C 27.28125 -12.878906 29.203125 -12.328125 31.640625 -12.328125 Z M 31.640625 -12.328125 "/></g></g></g><g fill="#c79a45" fill-opacity="1"><g transform="translate(597.149557, 107.639697)"><g><path d="M 26.875 -52.96875 C 29.019531 -55.695312 31.8125 -57.742188 35.25 -59.109375 C 38.695312 -60.484375 42.640625 -61.171875 47.078125 -61.171875 L 47.078125 -42.1875 C 45.148438 -42.414062 43.554688 -42.53125 42.296875 -42.53125 C 37.785156 -42.53125 34.253906 -41.304688 31.703125 -38.859375 C 29.148438 -36.421875 27.875 -32.679688 27.875 -27.640625 L 27.875 0 L 6.765625 0 L 6.765625 -60.171875 L 26.875 -60.171875 Z M 26.875 -52.96875 "/></g></g></g><g fill="#c79a45" fill-opacity="1"><g transform="translate(647.997333, 107.639697)"><g><path d="M 70.171875 -60.171875 L 44.1875 2.4375 C 41.15625 9.84375 37.453125 15.046875 33.078125 18.046875 C 28.710938 21.046875 23.382812 22.546875 17.09375 22.546875 C 13.914062 22.546875 10.71875 22.046875 7.5 21.046875 C 4.28125 20.046875 1.671875 18.726562 -0.328125 17.09375 L 7 2.328125 C 8.175781 3.441406 9.597656 4.3125 11.265625 4.9375 C 12.929688 5.570312 14.617188 5.890625 16.328125 5.890625 C 18.316406 5.890625 19.957031 5.476562 21.25 4.65625 C 22.550781 3.84375 23.644531 2.550781 24.53125 0.78125 L -1.21875 -60.171875 L 20.4375 -60.171875 L 35.203125 -23.421875 L 50.078125 -60.171875 Z M 70.171875 -60.171875 "/></g></g></g></g></g><g fill="#b0873a" fill-opacity="0.4"><g transform="translate(465.753864, 243.408263)"><g><path d="M 3.640625 -36.359375 L 13.921875 -36.359375 L 13.921875 0 L 3.640625 0 Z M 3.640625 -36.359375 "/></g></g></g><g fill="#b0873a" fill-opacity="0.4"><g transform="translate(483.364556, 243.408263)"><g><path d="M 21.515625 -28.625 C 25.003906 -28.625 27.8125 -27.582031 29.9375 -25.5 C 32.070312 -23.425781 33.140625 -20.296875 33.140625 -16.109375 L 33.140625 0 L 23.28125 0 L 23.28125 -14.5 C 23.28125 -18.34375 21.738281 -20.265625 18.65625 -20.265625 C 16.957031 -20.265625 15.597656 -19.707031 14.578125 -18.59375 C 13.554688 -17.488281 13.046875 -15.828125 13.046875 -13.609375 L 13.046875 0 L 3.171875 0 L 3.171875 -28.15625 L 12.578125 -28.15625 L 12.578125 -25.09375 C 13.679688 -26.238281 14.992188 -27.113281 16.515625 -27.71875 C 18.046875 -28.320312 19.710938 -28.625 21.515625 -28.625 Z M 21.515625 -28.625 "/></g></g></g><g fill="#b0873a" fill-opacity="0.4"><g transform="translate(519.93663, 243.408263)"><g><path d="M 33.09375 -38.546875 L 33.09375 0 L 23.6875 0 L 23.6875 -2.8125 C 21.851562 -0.625 19.101562 0.46875 15.4375 0.46875 C 12.863281 0.46875 10.519531 -0.125 8.40625 -1.3125 C 6.300781 -2.507812 4.632812 -4.21875 3.40625 -6.4375 C 2.175781 -8.65625 1.5625 -11.21875 1.5625 -14.125 C 1.5625 -17.039062 2.175781 -19.597656 3.40625 -21.796875 C 4.632812 -23.992188 6.300781 -25.679688 8.40625 -26.859375 C 10.519531 -28.035156 12.863281 -28.625 15.4375 -28.625 C 18.789062 -28.625 21.382812 -27.65625 23.21875 -25.71875 L 23.21875 -38.546875 Z M 17.515625 -7.375 C 19.203125 -7.375 20.597656 -7.972656 21.703125 -9.171875 C 22.816406 -10.367188 23.375 -12.019531 23.375 -14.125 C 23.375 -16.207031 22.828125 -17.835938 21.734375 -19.015625 C 20.648438 -20.191406 19.242188 -20.78125 17.515625 -20.78125 C 15.773438 -20.78125 14.347656 -20.191406 13.234375 -19.015625 C 12.128906 -17.835938 11.578125 -16.207031 11.578125 -14.125 C 11.578125 -12.019531 12.128906 -10.367188 13.234375 -9.171875 C 14.347656 -7.972656 15.773438 -7.375 17.515625 -7.375 Z M 17.515625 -7.375 "/></g></g></g><g fill="#b0873a" fill-opacity="0.4"><g transform="translate(556.196997, 243.408263)"><g><path d="M 17.296875 0.46875 C 14.285156 0.46875 11.566406 -0.148438 9.140625 -1.390625 C 6.710938 -2.640625 4.816406 -4.375 3.453125 -6.59375 C 2.085938 -8.8125 1.40625 -11.320312 1.40625 -14.125 C 1.40625 -16.894531 2.085938 -19.390625 3.453125 -21.609375 C 4.816406 -23.828125 6.703125 -25.550781 9.109375 -26.78125 C 11.523438 -28.007812 14.253906 -28.625 17.296875 -28.625 C 20.347656 -28.625 23.082031 -28.007812 25.5 -26.78125 C 27.925781 -25.550781 29.816406 -23.835938 31.171875 -21.640625 C 32.523438 -19.441406 33.203125 -16.9375 33.203125 -14.125 C 33.203125 -11.320312 32.523438 -8.8125 31.171875 -6.59375 C 29.816406 -4.375 27.925781 -2.640625 25.5 -1.390625 C 23.082031 -0.148438 20.347656 0.46875 17.296875 0.46875 Z M 17.296875 -7.375 C 19.023438 -7.375 20.441406 -7.972656 21.546875 -9.171875 C 22.660156 -10.367188 23.21875 -12.019531 23.21875 -14.125 C 23.21875 -16.207031 22.660156 -17.835938 21.546875 -19.015625 C 20.441406 -20.191406 19.023438 -20.78125 17.296875 -20.78125 C 15.566406 -20.78125 14.144531 -20.191406 13.03125 -19.015625 C 11.925781 -17.835938 11.375 -16.207031 11.375 -14.125 C 11.375 -12.019531 11.925781 -10.367188 13.03125 -9.171875 C 14.144531 -7.972656 15.566406 -7.375 17.296875 -7.375 Z M 17.296875 -7.375 "/></g></g></g><g fill="#b0873a" fill-opacity="0.4"><g transform="translate(590.795005, 243.408263)"><g/></g></g><g fill="#b0873a" fill-opacity="0.4"><g transform="translate(605.91215, 243.408263)"><g><path d="M 11.375 -28.203125 L 0.203125 -28.203125 L 0.203125 -36.359375 L 32.78125 -36.359375 L 32.78125 -28.203125 L 21.671875 -28.203125 L 21.671875 0 L 11.375 0 Z M 11.375 -28.203125 "/></g></g></g><g fill="#b0873a" fill-opacity="0.4"><g transform="translate(636.042463, 243.408263)"><g><path d="M 31.953125 -14.03125 C 31.953125 -13.957031 31.898438 -13.140625 31.796875 -11.578125 L 11.328125 -11.578125 C 11.742188 -10.128906 12.546875 -9.015625 13.734375 -8.234375 C 14.929688 -7.453125 16.429688 -7.0625 18.234375 -7.0625 C 19.585938 -7.0625 20.753906 -7.25 21.734375 -7.625 C 22.722656 -8.007812 23.722656 -8.632812 24.734375 -9.5 L 29.921875 -4.109375 C 27.191406 -1.054688 23.191406 0.46875 17.921875 0.46875 C 14.628906 0.46875 11.734375 -0.148438 9.234375 -1.390625 C 6.742188 -2.640625 4.816406 -4.375 3.453125 -6.59375 C 2.085938 -8.8125 1.40625 -11.320312 1.40625 -14.125 C 1.40625 -16.894531 2.070312 -19.378906 3.40625 -21.578125 C 4.738281 -23.785156 6.582031 -25.507812 8.9375 -26.75 C 11.289062 -28 13.941406 -28.625 16.890625 -28.625 C 19.691406 -28.625 22.234375 -28.039062 24.515625 -26.875 C 26.804688 -25.71875 28.617188 -24.039062 29.953125 -21.84375 C 31.285156 -19.644531 31.953125 -17.039062 31.953125 -14.03125 Z M 16.9375 -21.609375 C 15.414062 -21.609375 14.140625 -21.175781 13.109375 -20.3125 C 12.085938 -19.445312 11.441406 -18.269531 11.171875 -16.78125 L 22.703125 -16.78125 C 22.421875 -18.269531 21.769531 -19.445312 20.75 -20.3125 C 19.726562 -21.175781 18.457031 -21.609375 16.9375 -21.609375 Z M 16.9375 -21.609375 "/></g></g></g><g fill="#b0873a" fill-opacity="0.4"><g transform="translate(669.39368, 243.408263)"><g><path d="M 15.953125 -9.875 L 13.046875 -6.90625 L 13.046875 0 L 3.171875 0 L 3.171875 -38.546875 L 13.046875 -38.546875 L 13.046875 -18.34375 L 23.125 -28.15625 L 34.8125 -28.15625 L 23.125 -16.109375 L 35.796875 0 L 23.84375 0 Z M 15.953125 -9.875 "/></g></g></g><g fill="#b0873a" fill-opacity="0.4"><g transform="translate(704.926771, 243.408263)"><g><path d="M 21.515625 -28.625 C 25.003906 -28.625 27.8125 -27.582031 29.9375 -25.5 C 32.070312 -23.425781 33.140625 -20.296875 33.140625 -16.109375 L 33.140625 0 L 23.28125 0 L 23.28125 -14.5 C 23.28125 -18.34375 21.738281 -20.265625 18.65625 -20.265625 C 16.957031 -20.265625 15.597656 -19.707031 14.578125 -18.59375 C 13.554688 -17.488281 13.046875 -15.828125 13.046875 -13.609375 L 13.046875 0 L 3.171875 0 L 3.171875 -28.15625 L 12.578125 -28.15625 L 12.578125 -25.09375 C 13.679688 -26.238281 14.992188 -27.113281 16.515625 -27.71875 C 18.046875 -28.320312 19.710938 -28.625 21.515625 -28.625 Z M 21.515625 -28.625 "/></g></g></g><g fill="#b0873a" fill-opacity="0.4"><g transform="translate(741.083228, 243.408263)"><g><path d="M 3.171875 -28.15625 L 13.046875 -28.15625 L 13.046875 0 L 3.171875 0 Z M 8.109375 -31.28125 C 6.304688 -31.28125 4.847656 -31.78125 3.734375 -32.78125 C 2.628906 -33.78125 2.078125 -35.023438 2.078125 -36.515625 C 2.078125 -38.003906 2.628906 -39.25 3.734375 -40.25 C 4.847656 -41.257812 6.304688 -41.765625 8.109375 -41.765625 C 9.898438 -41.765625 11.347656 -41.285156 12.453125 -40.328125 C 13.566406 -39.378906 14.125 -38.160156 14.125 -36.671875 C 14.125 -35.117188 13.566406 -33.832031 12.453125 -32.8125 C 11.347656 -31.789062 9.898438 -31.28125 8.109375 -31.28125 Z M 8.109375 -31.28125 "/></g></g></g><g fill="#b0873a" fill-opacity="0.4"><g transform="translate(757.343266, 243.408263)"><g><path d="M 15.953125 -9.875 L 13.046875 -6.90625 L 13.046875 0 L 3.171875 0 L 3.171875 -38.546875 L 13.046875 -38.546875 L 13.046875 -18.34375 L 23.125 -28.15625 L 34.8125 -28.15625 L 23.125 -16.109375 L 35.796875 0 L 23.84375 0 Z M 15.953125 -9.875 "/></g></g></g><g fill="#c79a45" fill-opacity="1"><g transform="translate(464.605856, 242.260251)"><g><path d="M 3.640625 -36.359375 L 13.921875 -36.359375 L 13.921875 0 L 3.640625 0 Z M 3.640625 -36.359375 "/></g></g></g><g fill="#c79a45" fill-opacity="1"><g transform="translate(482.216549, 242.260251)"><g><path d="M 21.515625 -28.625 C 25.003906 -28.625 27.8125 -27.582031 29.9375 -25.5 C 32.070312 -23.425781 33.140625 -20.296875 33.140625 -16.109375 L 33.140625 0 L 23.28125 0 L 23.28125 -14.5 C 23.28125 -18.34375 21.738281 -20.265625 18.65625 -20.265625 C 16.957031 -20.265625 15.597656 -19.707031 14.578125 -18.59375 C 13.554688 -17.488281 13.046875 -15.828125 13.046875 -13.609375 L 13.046875 0 L 3.171875 0 L 3.171875 -28.15625 L 12.578125 -28.15625 L 12.578125 -25.09375 C 13.679688 -26.238281 14.992188 -27.113281 16.515625 -27.71875 C 18.046875 -28.320312 19.710938 -28.625 21.515625 -28.625 Z M 21.515625 -28.625 "/></g></g></g><g fill="#c79a45" fill-opacity="1"><g transform="translate(518.788623, 242.260251)"><g><path d="M 33.09375 -38.546875 L 33.09375 0 L 23.6875 0 L 23.6875 -2.8125 C 21.851562 -0.625 19.101562 0.46875 15.4375 0.46875 C 12.863281 0.46875 10.519531 -0.125 8.40625 -1.3125 C 6.300781 -2.507812 4.632812 -4.21875 3.40625 -6.4375 C 2.175781 -8.65625 1.5625 -11.21875 1.5625 -14.125 C 1.5625 -17.039062 2.175781 -19.597656 3.40625 -21.796875 C 4.632812 -23.992188 6.300781 -25.679688 8.40625 -26.859375 C 10.519531 -28.035156 12.863281 -28.625 15.4375 -28.625 C 18.789062 -28.625 21.382812 -27.65625 23.21875 -25.71875 L 23.21875 -38.546875 Z M 17.515625 -7.375 C 19.203125 -7.375 20.597656 -7.972656 21.703125 -9.171875 C 22.816406 -10.367188 23.375 -12.019531 23.375 -14.125 C 23.375 -16.207031 22.828125 -17.835938 21.734375 -19.015625 C 20.648438 -20.191406 19.242188 -20.78125 17.515625 -20.78125 C 15.773438 -20.78125 14.347656 -20.191406 13.234375 -19.015625 C 12.128906 -17.835938 11.578125 -16.207031 11.578125 -14.125 C 11.578125 -12.019531 12.128906 -10.367188 13.234375 -9.171875 C 14.347656 -7.972656 15.773438 -7.375 17.515625 -7.375 Z M 17.515625 -7.375 "/></g></g></g><g fill="#c79a45" fill-opacity="1"><g transform="translate(555.04899, 242.260251)"><g><path d="M 17.296875 0.46875 C 14.285156 0.46875 11.566406 -0.148438 9.140625 -1.390625 C 6.710938 -2.640625 4.816406 -4.375 3.453125 -6.59375 C 2.085938 -8.8125 1.40625 -11.320312 1.40625 -14.125 C 1.40625 -16.894531 2.085938 -19.390625 3.453125 -21.609375 C 4.816406 -23.828125 6.703125 -25.550781 9.109375 -26.78125 C 11.523438 -28.007812 14.253906 -28.625 17.296875 -28.625 C 20.347656 -28.625 23.082031 -28.007812 25.5 -26.78125 C 27.925781 -25.550781 29.816406 -23.835938 31.171875 -21.640625 C 32.523438 -19.441406 33.203125 -16.9375 33.203125 -14.125 C 33.203125 -11.320312 32.523438 -8.8125 31.171875 -6.59375 C 29.816406 -4.375 27.925781 -2.640625 25.5 -1.390625 C 23.082031 -0.148438 20.347656 0.46875 17.296875 0.46875 Z M 17.296875 -7.375 C 19.023438 -7.375 20.441406 -7.972656 21.546875 -9.171875 C 22.660156 -10.367188 23.21875 -12.019531 23.21875 -14.125 C 23.21875 -16.207031 22.660156 -17.835938 21.546875 -19.015625 C 20.441406 -20.191406 19.023438 -20.78125 17.296875 -20.78125 C 15.566406 -20.78125 14.144531 -20.191406 13.03125 -19.015625 C 11.925781 -17.835938 11.375 -16.207031 11.375 -14.125 C 11.375 -12.019531 11.925781 -10.367188 13.03125 -9.171875 C 14.144531 -7.972656 15.566406 -7.375 17.296875 -7.375 Z M 17.296875 -7.375 "/></g></g></g><g fill="#c79a45" fill-opacity="1"><g transform="translate(589.646997, 242.260251)"><g/></g></g><g fill="#c79a45" fill-opacity="1"><g transform="translate(604.764143, 242.260251)"><g><path d="M 11.375 -28.203125 L 0.203125 -28.203125 L 0.203125 -36.359375 L 32.78125 -36.359375 L 32.78125 -28.203125 L 21.671875 -28.203125 L 21.671875 0 L 11.375 0 Z M 11.375 -28.203125 "/></g></g></g><g fill="#c79a45" fill-opacity="1"><g transform="translate(634.894456, 242.260251)"><g><path d="M 31.953125 -14.03125 C 31.953125 -13.957031 31.898438 -13.140625 31.796875 -11.578125 L 11.328125 -11.578125 C 11.742188 -10.128906 12.546875 -9.015625 13.734375 -8.234375 C 14.929688 -7.453125 16.429688 -7.0625 18.234375 -7.0625 C 19.585938 -7.0625 20.753906 -7.25 21.734375 -7.625 C 22.722656 -8.007812 23.722656 -8.632812 24.734375 -9.5 L 29.921875 -4.109375 C 27.191406 -1.054688 23.191406 0.46875 17.921875 0.46875 C 14.628906 0.46875 11.734375 -0.148438 9.234375 -1.390625 C 6.742188 -2.640625 4.816406 -4.375 3.453125 -6.59375 C 2.085938 -8.8125 1.40625 -11.320312 1.40625 -14.125 C 1.40625 -16.894531 2.070312 -19.378906 3.40625 -21.578125 C 4.738281 -23.785156 6.582031 -25.507812 8.9375 -26.75 C 11.289062 -28 13.941406 -28.625 16.890625 -28.625 C 19.691406 -28.625 22.234375 -28.039062 24.515625 -26.875 C 26.804688 -25.71875 28.617188 -24.039062 29.953125 -21.84375 C 31.285156 -19.644531 31.953125 -17.039062 31.953125 -14.03125 Z M 16.9375 -21.609375 C 15.414062 -21.609375 14.140625 -21.175781 13.109375 -20.3125 C 12.085938 -19.445312 11.441406 -18.269531 11.171875 -16.78125 L 22.703125 -16.78125 C 22.421875 -18.269531 21.769531 -19.445312 20.75 -20.3125 C 19.726562 -21.175781 18.457031 -21.609375 16.9375 -21.609375 Z M 16.9375 -21.609375 "/></g></g></g><g fill="#c79a45" fill-opacity="1"><g transform="translate(668.245673, 242.260251)"><g><path d="M 15.953125 -9.875 L 13.046875 -6.90625 L 13.046875 0 L 3.171875 0 L 3.171875 -38.546875 L 13.046875 -38.546875 L 13.046875 -18.34375 L 23.125 -28.15625 L 34.8125 -28.15625 L 23.125 -16.109375 L 35.796875 0 L 23.84375 0 Z M 15.953125 -9.875 "/></g></g></g><g fill="#c79a45" fill-opacity="1"><g transform="translate(703.778764, 242.260251)"><g><path d="M 21.515625 -28.625 C 25.003906 -28.625 27.8125 -27.582031 29.9375 -25.5 C 32.070312 -23.425781 33.140625 -20.296875 33.140625 -16.109375 L 33.140625 0 L 23.28125 0 L 23.28125 -14.5 C 23.28125 -18.34375 21.738281 -20.265625 18.65625 -20.265625 C 16.957031 -20.265625 15.597656 -19.707031 14.578125 -18.59375 C 13.554688 -17.488281 13.046875 -15.828125 13.046875 -13.609375 L 13.046875 0 L 3.171875 0 L 3.171875 -28.15625 L 12.578125 -28.15625 L 12.578125 -25.09375 C 13.679688 -26.238281 14.992188 -27.113281 16.515625 -27.71875 C 18.046875 -28.320312 19.710938 -28.625 21.515625 -28.625 Z M 21.515625 -28.625 "/></g></g></g><g fill="#c79a45" fill-opacity="1"><g transform="translate(739.935221, 242.260251)"><g><path d="M 3.171875 -28.15625 L 13.046875 -28.15625 L 13.046875 0 L 3.171875 0 Z M 8.109375 -31.28125 C 6.304688 -31.28125 4.847656 -31.78125 3.734375 -32.78125 C 2.628906 -33.78125 2.078125 -35.023438 2.078125 -36.515625 C 2.078125 -38.003906 2.628906 -39.25 3.734375 -40.25 C 4.847656 -41.257812 6.304688 -41.765625 8.109375 -41.765625 C 9.898438 -41.765625 11.347656 -41.285156 12.453125 -40.328125 C 13.566406 -39.378906 14.125 -38.160156 14.125 -36.671875 C 14.125 -35.117188 13.566406 -33.832031 12.453125 -32.8125 C 11.347656 -31.789062 9.898438 -31.28125 8.109375 -31.28125 Z M 8.109375 -31.28125 "/></g></g></g><g fill="#c79a45" fill-opacity="1"><g transform="translate(756.195259, 242.260251)"><g><path d="M 15.953125 -9.875 L 13.046875 -6.90625 L 13.046875 0 L 3.171875 0 L 3.171875 -38.546875 L 13.046875 -38.546875 L 13.046875 -18.34375 L 23.125 -28.15625 L 34.8125 -28.15625 L 23.125 -16.109375 L 35.796875 0 L 23.84375 0 Z M 15.953125 -9.875 "/></g></g></g><g transform="matrix(1, 0, 0, 1, 464, 262)"><g clip-path="url(#58a20cf332)"><g fill="#b0873a" fill-opacity="0.4"><g transform="translate(1.121955, 23.698556)"><g><path d="M 1.640625 -16.34375 L 6.25 -16.34375 L 6.25 0 L 1.640625 0 Z M 1.640625 -16.34375 "/></g></g></g><g fill="#b0873a" fill-opacity="0.4"><g transform="translate(9.036589, 23.698556)"><g><path d="M 12.578125 -8.515625 L 16.671875 -8.515625 L 16.671875 -1.75 C 15.734375 -1.082031 14.65625 -0.566406 13.4375 -0.203125 C 12.226562 0.148438 11.015625 0.328125 9.796875 0.328125 C 8.085938 0.328125 6.546875 -0.03125 5.171875 -0.75 C 3.804688 -1.476562 2.734375 -2.488281 1.953125 -3.78125 C 1.179688 -5.070312 0.796875 -6.535156 0.796875 -8.171875 C 0.796875 -9.804688 1.179688 -11.269531 1.953125 -12.5625 C 2.734375 -13.851562 3.816406 -14.859375 5.203125 -15.578125 C 6.585938 -16.304688 8.148438 -16.671875 9.890625 -16.671875 C 11.421875 -16.671875 12.789062 -16.410156 14 -15.890625 C 15.21875 -15.378906 16.234375 -14.640625 17.046875 -13.671875 L 14.09375 -11.015625 C 12.988281 -12.234375 11.664062 -12.84375 10.125 -12.84375 C 8.726562 -12.84375 7.601562 -12.414062 6.75 -11.5625 C 5.894531 -10.71875 5.46875 -9.585938 5.46875 -8.171875 C 5.46875 -7.265625 5.660156 -6.457031 6.046875 -5.75 C 6.429688 -5.039062 6.972656 -4.488281 7.671875 -4.09375 C 8.378906 -3.695312 9.179688 -3.5 10.078125 -3.5 C 10.972656 -3.5 11.804688 -3.675781 12.578125 -4.03125 Z M 12.578125 -8.515625 "/></g></g></g><g fill="#b0873a" fill-opacity="0.4"><g transform="translate(27.013779, 23.698556)"><g><path d="M 17.1875 -16.34375 L 17.1875 0 L 13.375 0 L 6.15625 -8.703125 L 6.15625 0 L 1.640625 0 L 1.640625 -16.34375 L 5.4375 -16.34375 L 12.65625 -7.640625 L 12.65625 -16.34375 Z M 17.1875 -16.34375 "/></g></g></g><g fill="#b0873a" fill-opacity="0.4"><g transform="translate(45.831463, 23.698556)"><g><path d="M 1.640625 -16.34375 L 6.25 -16.34375 L 6.25 0 L 1.640625 0 Z M 1.640625 -16.34375 "/></g></g></g><g fill="#b0873a" fill-opacity="0.4"><g transform="translate(53.746098, 23.698556)"><g><path d="M 5.109375 -12.671875 L 0.09375 -12.671875 L 0.09375 -16.34375 L 14.734375 -16.34375 L 14.734375 -12.671875 L 9.734375 -12.671875 L 9.734375 0 L 5.109375 0 Z M 5.109375 -12.671875 "/></g></g></g><g fill="#b0873a" fill-opacity="0.4"><g transform="translate(68.571437, 23.698556)"><g><path d="M 14.75 -3.578125 L 14.75 0 L 1.640625 0 L 1.640625 -16.34375 L 14.453125 -16.34375 L 14.453125 -12.765625 L 6.203125 -12.765625 L 6.203125 -10.015625 L 13.46875 -10.015625 L 13.46875 -6.5625 L 6.203125 -6.5625 L 6.203125 -3.578125 Z M 14.75 -3.578125 "/></g></g></g><g fill="#b0873a" fill-opacity="0.4"><g transform="translate(84.260618, 23.698556)"><g/></g></g><g fill="#b0873a" fill-opacity="0.4"><g transform="translate(91.054597, 23.698556)"><g><path d="M 13.421875 -3.671875 L 13.421875 0 L 0.703125 0 L 0.703125 -2.890625 L 6.8125 -8.609375 C 7.40625 -9.171875 7.800781 -9.648438 8 -10.046875 C 8.207031 -10.441406 8.3125 -10.84375 8.3125 -11.25 C 8.3125 -11.78125 8.128906 -12.191406 7.765625 -12.484375 C 7.410156 -12.785156 6.890625 -12.9375 6.203125 -12.9375 C 5.597656 -12.9375 5.039062 -12.796875 4.53125 -12.515625 C 4.03125 -12.242188 3.617188 -11.851562 3.296875 -11.34375 L -0.140625 -13.265625 C 0.492188 -14.316406 1.382812 -15.144531 2.53125 -15.75 C 3.6875 -16.363281 5.050781 -16.671875 6.625 -16.671875 C 7.875 -16.671875 8.976562 -16.46875 9.9375 -16.0625 C 10.894531 -15.65625 11.640625 -15.070312 12.171875 -14.3125 C 12.710938 -13.5625 12.984375 -12.6875 12.984375 -11.6875 C 12.984375 -10.800781 12.789062 -9.960938 12.40625 -9.171875 C 12.019531 -8.390625 11.285156 -7.503906 10.203125 -6.515625 L 7.125 -3.671875 Z M 13.421875 -3.671875 "/></g></g></g><g fill="#b0873a" fill-opacity="0.4"><g transform="translate(105.016106, 23.698556)"><g><path d="M 8 0.328125 C 6.601562 0.328125 5.359375 -0.00390625 4.265625 -0.671875 C 3.179688 -1.347656 2.332031 -2.328125 1.71875 -3.609375 C 1.101562 -4.890625 0.796875 -6.410156 0.796875 -8.171875 C 0.796875 -9.929688 1.101562 -11.453125 1.71875 -12.734375 C 2.332031 -14.015625 3.179688 -14.988281 4.265625 -15.65625 C 5.359375 -16.332031 6.601562 -16.671875 8 -16.671875 C 9.382812 -16.671875 10.625 -16.332031 11.71875 -15.65625 C 12.8125 -14.988281 13.664062 -14.015625 14.28125 -12.734375 C 14.894531 -11.453125 15.203125 -9.929688 15.203125 -8.171875 C 15.203125 -6.410156 14.894531 -4.890625 14.28125 -3.609375 C 13.664062 -2.328125 12.8125 -1.347656 11.71875 -0.671875 C 10.625 -0.00390625 9.382812 0.328125 8 0.328125 Z M 8 -3.453125 C 8.78125 -3.453125 9.398438 -3.828125 9.859375 -4.578125 C 10.316406 -5.335938 10.546875 -6.535156 10.546875 -8.171875 C 10.546875 -9.804688 10.316406 -11 9.859375 -11.75 C 9.398438 -12.507812 8.78125 -12.890625 8 -12.890625 C 7.207031 -12.890625 6.582031 -12.507812 6.125 -11.75 C 5.664062 -11 5.4375 -9.804688 5.4375 -8.171875 C 5.4375 -6.535156 5.664062 -5.335938 6.125 -4.578125 C 6.582031 -3.828125 7.207031 -3.453125 8 -3.453125 Z M 8 -3.453125 "/></g></g></g><g fill="#b0873a" fill-opacity="0.4"><g transform="translate(121.008797, 23.698556)"><g><path d="M 3.296875 -7.609375 C 2.546875 -7.609375 1.910156 -7.851562 1.390625 -8.34375 C 0.878906 -8.84375 0.625 -9.472656 0.625 -10.234375 C 0.625 -11.015625 0.875 -11.644531 1.375 -12.125 C 1.882812 -12.613281 2.523438 -12.859375 3.296875 -12.859375 C 4.066406 -12.859375 4.703125 -12.613281 5.203125 -12.125 C 5.703125 -11.644531 5.953125 -11.015625 5.953125 -10.234375 C 5.953125 -9.472656 5.695312 -8.84375 5.1875 -8.34375 C 4.6875 -7.851562 4.054688 -7.609375 3.296875 -7.609375 Z M 3.296875 0.203125 C 2.546875 0.203125 1.910156 -0.0390625 1.390625 -0.53125 C 0.878906 -1.03125 0.625 -1.660156 0.625 -2.421875 C 0.625 -3.203125 0.875 -3.832031 1.375 -4.3125 C 1.882812 -4.800781 2.523438 -5.046875 3.296875 -5.046875 C 4.066406 -5.046875 4.703125 -4.800781 5.203125 -4.3125 C 5.703125 -3.832031 5.953125 -3.203125 5.953125 -2.421875 C 5.953125 -1.660156 5.695312 -1.03125 5.1875 -0.53125 C 4.6875 -0.0390625 4.054688 0.203125 3.296875 0.203125 Z M 3.296875 0.203125 "/></g></g></g><g fill="#b0873a" fill-opacity="0.4"><g transform="translate(1.121955, 56.105294)"><g><path d="M 5.109375 -12.671875 L 0.09375 -12.671875 L 0.09375 -16.34375 L 14.734375 -16.34375 L 14.734375 -12.671875 L 9.734375 -12.671875 L 9.734375 0 L 5.109375 0 Z M 5.109375 -12.671875 "/></g></g></g><g fill="#b0873a" fill-opacity="0.4"><g transform="translate(15.947294, 56.105294)"><g><path d="M 17.1875 -16.34375 L 17.1875 0 L 12.5625 0 L 12.5625 -6.375 L 6.25 -6.375 L 6.25 0 L 1.640625 0 L 1.640625 -16.34375 L 6.25 -16.34375 L 6.25 -10.203125 L 12.5625 -10.203125 L 12.5625 -16.34375 Z M 17.1875 -16.34375 "/></g></g></g><g fill="#b0873a" fill-opacity="0.4"><g transform="translate(34.764978, 56.105294)"><g><path d="M 14.75 -3.578125 L 14.75 0 L 1.640625 0 L 1.640625 -16.34375 L 14.453125 -16.34375 L 14.453125 -12.765625 L 6.203125 -12.765625 L 6.203125 -10.015625 L 13.46875 -10.015625 L 13.46875 -6.5625 L 6.203125 -6.5625 L 6.203125 -3.578125 Z M 14.75 -3.578125 "/></g></g></g><g fill="#b0873a" fill-opacity="0.4"><g transform="translate(50.45416, 56.105294)"><g/></g></g><g fill="#b0873a" fill-opacity="0.4"><g transform="translate(57.248139, 56.105294)"><g><path d="M 1.640625 -16.34375 L 6.25 -16.34375 L 6.25 0 L 1.640625 0 Z M 1.640625 -16.34375 "/></g></g></g><g fill="#b0873a" fill-opacity="0.4"><g transform="translate(65.162773, 56.105294)"><g><path d="M 17.1875 -16.34375 L 17.1875 0 L 13.375 0 L 6.15625 -8.703125 L 6.15625 0 L 1.640625 0 L 1.640625 -16.34375 L 5.4375 -16.34375 L 12.65625 -7.640625 L 12.65625 -16.34375 Z M 17.1875 -16.34375 "/></g></g></g><g fill="#b0873a" fill-opacity="0.4"><g transform="translate(83.980458, 56.105294)"><g><path d="M 1.640625 -16.34375 L 9.359375 -16.34375 C 11.148438 -16.34375 12.738281 -16.003906 14.125 -15.328125 C 15.507812 -14.660156 16.582031 -13.710938 17.34375 -12.484375 C 18.101562 -11.253906 18.484375 -9.816406 18.484375 -8.171875 C 18.484375 -6.523438 18.101562 -5.082031 17.34375 -3.84375 C 16.582031 -2.613281 15.507812 -1.664062 14.125 -1 C 12.738281 -0.332031 11.148438 0 9.359375 0 L 1.640625 0 Z M 9.171875 -3.6875 C 10.578125 -3.6875 11.703125 -4.082031 12.546875 -4.875 C 13.390625 -5.664062 13.8125 -6.765625 13.8125 -8.171875 C 13.8125 -9.566406 13.390625 -10.660156 12.546875 -11.453125 C 11.703125 -12.253906 10.578125 -12.65625 9.171875 -12.65625 L 6.25 -12.65625 L 6.25 -3.6875 Z M 9.171875 -3.6875 "/></g></g></g><g fill="#b0873a" fill-opacity="0.4"><g transform="translate(103.265072, 56.105294)"><g><path d="M 9.875 0.328125 C 8.144531 0.328125 6.59375 -0.0351562 5.21875 -0.765625 C 3.84375 -1.503906 2.757812 -2.519531 1.96875 -3.8125 C 1.1875 -5.101562 0.796875 -6.554688 0.796875 -8.171875 C 0.796875 -9.785156 1.1875 -11.238281 1.96875 -12.53125 C 2.757812 -13.820312 3.84375 -14.832031 5.21875 -15.5625 C 6.59375 -16.300781 8.144531 -16.671875 9.875 -16.671875 C 11.601562 -16.671875 13.15625 -16.300781 14.53125 -15.5625 C 15.90625 -14.832031 16.984375 -13.820312 17.765625 -12.53125 C 18.554688 -11.238281 18.953125 -9.785156 18.953125 -8.171875 C 18.953125 -6.554688 18.554688 -5.101562 17.765625 -3.8125 C 16.984375 -2.519531 15.90625 -1.503906 14.53125 -0.765625 C 13.15625 -0.0351562 11.601562 0.328125 9.875 0.328125 Z M 9.875 -3.5 C 10.695312 -3.5 11.441406 -3.691406 12.109375 -4.078125 C 12.785156 -4.472656 13.316406 -5.023438 13.703125 -5.734375 C 14.085938 -6.441406 14.28125 -7.253906 14.28125 -8.171875 C 14.28125 -9.085938 14.085938 -9.898438 13.703125 -10.609375 C 13.316406 -11.316406 12.785156 -11.863281 12.109375 -12.25 C 11.441406 -12.644531 10.695312 -12.84375 9.875 -12.84375 C 9.050781 -12.84375 8.300781 -12.644531 7.625 -12.25 C 6.957031 -11.863281 6.429688 -11.316406 6.046875 -10.609375 C 5.660156 -9.898438 5.46875 -9.085938 5.46875 -8.171875 C 5.46875 -7.253906 5.660156 -6.441406 6.046875 -5.734375 C 6.429688 -5.023438 6.957031 -4.472656 7.625 -4.078125 C 8.300781 -3.691406 9.050781 -3.5 9.875 -3.5 Z M 9.875 -3.5 "/></g></g></g><g fill="#b0873a" fill-opacity="0.4"><g transform="translate(123.016631, 56.105294)"><g/></g></g><g fill="#b0873a" fill-opacity="0.4"><g transform="translate(129.810609, 56.105294)"><g><path d="M 5.109375 -12.671875 L 0.09375 -12.671875 L 0.09375 -16.34375 L 14.734375 -16.34375 L 14.734375 -12.671875 L 9.734375 -12.671875 L 9.734375 0 L 5.109375 0 Z M 5.109375 -12.671875 "/></g></g></g><g fill="#b0873a" fill-opacity="0.4"><g transform="translate(144.635948, 56.105294)"><g><path d="M 14.75 -3.578125 L 14.75 0 L 1.640625 0 L 1.640625 -16.34375 L 14.453125 -16.34375 L 14.453125 -12.765625 L 6.203125 -12.765625 L 6.203125 -10.015625 L 13.46875 -10.015625 L 13.46875 -6.5625 L 6.203125 -6.5625 L 6.203125 -3.578125 Z M 14.75 -3.578125 "/></g></g></g><g fill="#b0873a" fill-opacity="0.4"><g transform="translate(160.32513, 56.105294)"><g><path d="M 7.9375 -5.921875 L 6.203125 -4.078125 L 6.203125 0 L 1.640625 0 L 1.640625 -16.34375 L 6.203125 -16.34375 L 6.203125 -9.546875 L 12.53125 -16.34375 L 17.625 -16.34375 L 10.953125 -9.109375 L 17.96875 0 L 12.609375 0 Z M 7.9375 -5.921875 "/></g></g></g><g fill="#b0873a" fill-opacity="0.4"><g transform="translate(177.882071, 56.105294)"><g><path d="M 17.1875 -16.34375 L 17.1875 0 L 13.375 0 L 6.15625 -8.703125 L 6.15625 0 L 1.640625 0 L 1.640625 -16.34375 L 5.4375 -16.34375 L 12.65625 -7.640625 L 12.65625 -16.34375 Z M 17.1875 -16.34375 "/></g></g></g><g fill="#b0873a" fill-opacity="0.4"><g transform="translate(196.699756, 56.105294)"><g><path d="M 1.640625 -16.34375 L 6.25 -16.34375 L 6.25 0 L 1.640625 0 Z M 1.640625 -16.34375 "/></g></g></g><g fill="#b0873a" fill-opacity="0.4"><g transform="translate(204.61439, 56.105294)"><g><path d="M 7.9375 -5.921875 L 6.203125 -4.078125 L 6.203125 0 L 1.640625 0 L 1.640625 -16.34375 L 6.203125 -16.34375 L 6.203125 -9.546875 L 12.53125 -16.34375 L 17.625 -16.34375 L 10.953125 -9.109375 L 17.96875 0 L 12.609375 0 Z M 7.9375 -5.921875 "/></g></g></g><g fill="#b0873a" fill-opacity="0.4"><g transform="translate(222.171332, 56.105294)"><g/></g></g><g fill="#b0873a" fill-opacity="0.4"><g transform="translate(228.965311, 56.105294)"><g><path d="M 1.640625 -16.34375 L 6.25 -16.34375 L 6.25 -3.671875 L 14.046875 -3.671875 L 14.046875 0 L 1.640625 0 Z M 1.640625 -16.34375 "/></g></g></g><g fill="#b0873a" fill-opacity="0.4"><g transform="translate(243.206981, 56.105294)"><g><path d="M 14.75 -3.578125 L 14.75 0 L 1.640625 0 L 1.640625 -16.34375 L 14.453125 -16.34375 L 14.453125 -12.765625 L 6.203125 -12.765625 L 6.203125 -10.015625 L 13.46875 -10.015625 L 13.46875 -6.5625 L 6.203125 -6.5625 L 6.203125 -3.578125 Z M 14.75 -3.578125 "/></g></g></g><g fill="#b0873a" fill-opacity="0.4"><g transform="translate(258.872829, 56.105294)"><g><path d="M 12.578125 -8.515625 L 16.671875 -8.515625 L 16.671875 -1.75 C 15.734375 -1.082031 14.65625 -0.566406 13.4375 -0.203125 C 12.226562 0.148438 11.015625 0.328125 9.796875 0.328125 C 8.085938 0.328125 6.546875 -0.03125 5.171875 -0.75 C 3.804688 -1.476562 2.734375 -2.488281 1.953125 -3.78125 C 1.179688 -5.070312 0.796875 -6.535156 0.796875 -8.171875 C 0.796875 -9.804688 1.179688 -11.269531 1.953125 -12.5625 C 2.734375 -13.851562 3.816406 -14.859375 5.203125 -15.578125 C 6.585938 -16.304688 8.148438 -16.671875 9.890625 -16.671875 C 11.421875 -16.671875 12.789062 -16.410156 14 -15.890625 C 15.21875 -15.378906 16.234375 -14.640625 17.046875 -13.671875 L 14.09375 -11.015625 C 12.988281 -12.234375 11.664062 -12.84375 10.125 -12.84375 C 8.726562 -12.84375 7.601562 -12.414062 6.75 -11.5625 C 5.894531 -10.71875 5.46875 -9.585938 5.46875 -8.171875 C 5.46875 -7.265625 5.660156 -6.457031 6.046875 -5.75 C 6.429688 -5.039062 6.972656 -4.488281 7.671875 -4.09375 C 8.378906 -3.695312 9.179688 -3.5 10.078125 -3.5 C 10.972656 -3.5 11.804688 -3.675781 12.578125 -4.03125 Z M 12.578125 -8.515625 "/></g></g></g><g fill="#b0873a" fill-opacity="0.4"><g transform="translate(276.849992, 56.105294)"><g><path d="M 12.578125 -3.171875 L 5.671875 -3.171875 L 4.390625 0 L -0.328125 0 L 6.890625 -16.34375 L 11.4375 -16.34375 L 18.671875 0 L 13.859375 0 Z M 11.234375 -6.578125 L 9.125 -11.8125 L 7.03125 -6.578125 Z M 11.234375 -6.578125 "/></g></g></g><g fill="#b0873a" fill-opacity="0.4"><g transform="translate(294.967241, 56.105294)"><g><path d="M 9.78125 0.328125 C 8.070312 0.328125 6.535156 -0.03125 5.171875 -0.75 C 3.804688 -1.476562 2.734375 -2.488281 1.953125 -3.78125 C 1.179688 -5.070312 0.796875 -6.535156 0.796875 -8.171875 C 0.796875 -9.804688 1.179688 -11.269531 1.953125 -12.5625 C 2.734375 -13.851562 3.804688 -14.859375 5.171875 -15.578125 C 6.535156 -16.304688 8.070312 -16.671875 9.78125 -16.671875 C 11.269531 -16.671875 12.613281 -16.40625 13.8125 -15.875 C 15.007812 -15.34375 16.007812 -14.582031 16.8125 -13.59375 L 13.859375 -10.921875 C 12.804688 -12.203125 11.523438 -12.84375 10.015625 -12.84375 C 9.128906 -12.84375 8.335938 -12.644531 7.640625 -12.25 C 6.953125 -11.863281 6.414062 -11.316406 6.03125 -10.609375 C 5.65625 -9.898438 5.46875 -9.085938 5.46875 -8.171875 C 5.46875 -7.253906 5.65625 -6.441406 6.03125 -5.734375 C 6.414062 -5.023438 6.953125 -4.472656 7.640625 -4.078125 C 8.335938 -3.691406 9.128906 -3.5 10.015625 -3.5 C 11.523438 -3.5 12.804688 -4.140625 13.859375 -5.421875 L 16.8125 -2.75 C 16.007812 -1.757812 15.007812 -1 13.8125 -0.46875 C 12.613281 0.0625 11.269531 0.328125 9.78125 0.328125 Z M 9.78125 0.328125 "/></g></g></g><g fill="#b0873a" fill-opacity="0.4"><g transform="translate(312.12727, 56.105294)"><g><path d="M 10.390625 -5.859375 L 10.390625 0 L 5.765625 0 L 5.765625 -5.921875 L -0.46875 -16.34375 L 4.40625 -16.34375 L 8.28125 -9.84375 L 12.15625 -16.34375 L 16.640625 -16.34375 Z M 10.390625 -5.859375 "/></g></g></g><g fill="#c79a45" fill-opacity="1"><g transform="translate(0.60586, 23.182462)"><g><path d="M 1.640625 -16.34375 L 6.25 -16.34375 L 6.25 0 L 1.640625 0 Z M 1.640625 -16.34375 "/></g></g></g><g fill="#c79a45" fill-opacity="1"><g transform="translate(8.520495, 23.182462)"><g><path d="M 12.578125 -8.515625 L 16.671875 -8.515625 L 16.671875 -1.75 C 15.734375 -1.082031 14.65625 -0.566406 13.4375 -0.203125 C 12.226562 0.148438 11.015625 0.328125 9.796875 0.328125 C 8.085938 0.328125 6.546875 -0.03125 5.171875 -0.75 C 3.804688 -1.476562 2.734375 -2.488281 1.953125 -3.78125 C 1.179688 -5.070312 0.796875 -6.535156 0.796875 -8.171875 C 0.796875 -9.804688 1.179688 -11.269531 1.953125 -12.5625 C 2.734375 -13.851562 3.816406 -14.859375 5.203125 -15.578125 C 6.585938 -16.304688 8.148438 -16.671875 9.890625 -16.671875 C 11.421875 -16.671875 12.789062 -16.410156 14 -15.890625 C 15.21875 -15.378906 16.234375 -14.640625 17.046875 -13.671875 L 14.09375 -11.015625 C 12.988281 -12.234375 11.664062 -12.84375 10.125 -12.84375 C 8.726562 -12.84375 7.601562 -12.414062 6.75 -11.5625 C 5.894531 -10.71875 5.46875 -9.585938 5.46875 -8.171875 C 5.46875 -7.265625 5.660156 -6.457031 6.046875 -5.75 C 6.429688 -5.039062 6.972656 -4.488281 7.671875 -4.09375 C 8.378906 -3.695312 9.179688 -3.5 10.078125 -3.5 C 10.972656 -3.5 11.804688 -3.675781 12.578125 -4.03125 Z M 12.578125 -8.515625 "/></g></g></g><g fill="#c79a45" fill-opacity="1"><g transform="translate(26.497684, 23.182462)"><g><path d="M 17.1875 -16.34375 L 17.1875 0 L 13.375 0 L 6.15625 -8.703125 L 6.15625 0 L 1.640625 0 L 1.640625 -16.34375 L 5.4375 -16.34375 L 12.65625 -7.640625 L 12.65625 -16.34375 Z M 17.1875 -16.34375 "/></g></g></g><g fill="#c79a45" fill-opacity="1"><g transform="translate(45.315369, 23.182462)"><g><path d="M 1.640625 -16.34375 L 6.25 -16.34375 L 6.25 0 L 1.640625 0 Z M 1.640625 -16.34375 "/></g></g></g><g fill="#c79a45" fill-opacity="1"><g transform="translate(53.230003, 23.182462)"><g><path d="M 5.109375 -12.671875 L 0.09375 -12.671875 L 0.09375 -16.34375 L 14.734375 -16.34375 L 14.734375 -12.671875 L 9.734375 -12.671875 L 9.734375 0 L 5.109375 0 Z M 5.109375 -12.671875 "/></g></g></g><g fill="#c79a45" fill-opacity="1"><g transform="translate(68.055342, 23.182462)"><g><path d="M 14.75 -3.578125 L 14.75 0 L 1.640625 0 L 1.640625 -16.34375 L 14.453125 -16.34375 L 14.453125 -12.765625 L 6.203125 -12.765625 L 6.203125 -10.015625 L 13.46875 -10.015625 L 13.46875 -6.5625 L 6.203125 -6.5625 L 6.203125 -3.578125 Z M 14.75 -3.578125 "/></g></g></g><g fill="#c79a45" fill-opacity="1"><g transform="translate(83.744524, 23.182462)"><g/></g></g><g fill="#c79a45" fill-opacity="1"><g transform="translate(90.538502, 23.182462)"><g><path d="M 13.421875 -3.671875 L 13.421875 0 L 0.703125 0 L 0.703125 -2.890625 L 6.8125 -8.609375 C 7.40625 -9.171875 7.800781 -9.648438 8 -10.046875 C 8.207031 -10.441406 8.3125 -10.84375 8.3125 -11.25 C 8.3125 -11.78125 8.128906 -12.191406 7.765625 -12.484375 C 7.410156 -12.785156 6.890625 -12.9375 6.203125 -12.9375 C 5.597656 -12.9375 5.039062 -12.796875 4.53125 -12.515625 C 4.03125 -12.242188 3.617188 -11.851562 3.296875 -11.34375 L -0.140625 -13.265625 C 0.492188 -14.316406 1.382812 -15.144531 2.53125 -15.75 C 3.6875 -16.363281 5.050781 -16.671875 6.625 -16.671875 C 7.875 -16.671875 8.976562 -16.46875 9.9375 -16.0625 C 10.894531 -15.65625 11.640625 -15.070312 12.171875 -14.3125 C 12.710938 -13.5625 12.984375 -12.6875 12.984375 -11.6875 C 12.984375 -10.800781 12.789062 -9.960938 12.40625 -9.171875 C 12.019531 -8.390625 11.285156 -7.503906 10.203125 -6.515625 L 7.125 -3.671875 Z M 13.421875 -3.671875 "/></g></g></g><g fill="#c79a45" fill-opacity="1"><g transform="translate(104.500012, 23.182462)"><g><path d="M 8 0.328125 C 6.601562 0.328125 5.359375 -0.00390625 4.265625 -0.671875 C 3.179688 -1.347656 2.332031 -2.328125 1.71875 -3.609375 C 1.101562 -4.890625 0.796875 -6.410156 0.796875 -8.171875 C 0.796875 -9.929688 1.101562 -11.453125 1.71875 -12.734375 C 2.332031 -14.015625 3.179688 -14.988281 4.265625 -15.65625 C 5.359375 -16.332031 6.601562 -16.671875 8 -16.671875 C 9.382812 -16.671875 10.625 -16.332031 11.71875 -15.65625 C 12.8125 -14.988281 13.664062 -14.015625 14.28125 -12.734375 C 14.894531 -11.453125 15.203125 -9.929688 15.203125 -8.171875 C 15.203125 -6.410156 14.894531 -4.890625 14.28125 -3.609375 C 13.664062 -2.328125 12.8125 -1.347656 11.71875 -0.671875 C 10.625 -0.00390625 9.382812 0.328125 8 0.328125 Z M 8 -3.453125 C 8.78125 -3.453125 9.398438 -3.828125 9.859375 -4.578125 C 10.316406 -5.335938 10.546875 -6.535156 10.546875 -8.171875 C 10.546875 -9.804688 10.316406 -11 9.859375 -11.75 C 9.398438 -12.507812 8.78125 -12.890625 8 -12.890625 C 7.207031 -12.890625 6.582031 -12.507812 6.125 -11.75 C 5.664062 -11 5.4375 -9.804688 5.4375 -8.171875 C 5.4375 -6.535156 5.664062 -5.335938 6.125 -4.578125 C 6.582031 -3.828125 7.207031 -3.453125 8 -3.453125 Z M 8 -3.453125 "/></g></g></g><g fill="#c79a45" fill-opacity="1"><g transform="translate(120.492702, 23.182462)"><g><path d="M 3.296875 -7.609375 C 2.546875 -7.609375 1.910156 -7.851562 1.390625 -8.34375 C 0.878906 -8.84375 0.625 -9.472656 0.625 -10.234375 C 0.625 -11.015625 0.875 -11.644531 1.375 -12.125 C 1.882812 -12.613281 2.523438 -12.859375 3.296875 -12.859375 C 4.066406 -12.859375 4.703125 -12.613281 5.203125 -12.125 C 5.703125 -11.644531 5.953125 -11.015625 5.953125 -10.234375 C 5.953125 -9.472656 5.695312 -8.84375 5.1875 -8.34375 C 4.6875 -7.851562 4.054688 -7.609375 3.296875 -7.609375 Z M 3.296875 0.203125 C 2.546875 0.203125 1.910156 -0.0390625 1.390625 -0.53125 C 0.878906 -1.03125 0.625 -1.660156 0.625 -2.421875 C 0.625 -3.203125 0.875 -3.832031 1.375 -4.3125 C 1.882812 -4.800781 2.523438 -5.046875 3.296875 -5.046875 C 4.066406 -5.046875 4.703125 -4.800781 5.203125 -4.3125 C 5.703125 -3.832031 5.953125 -3.203125 5.953125 -2.421875 C 5.953125 -1.660156 5.695312 -1.03125 5.1875 -0.53125 C 4.6875 -0.0390625 4.054688 0.203125 3.296875 0.203125 Z M 3.296875 0.203125 "/></g></g></g><g clip-path="url(#25dae1d2cd)"><g fill="#c79a45" fill-opacity="1"><g transform="translate(0.60586, 55.5892)"><g><path d="M 5.109375 -12.671875 L 0.09375 -12.671875 L 0.09375 -16.34375 L 14.734375 -16.34375 L 14.734375 -12.671875 L 9.734375 -12.671875 L 9.734375 0 L 5.109375 0 Z M 5.109375 -12.671875 "/></g></g></g></g><g fill="#c79a45" fill-opacity="1"><g transform="translate(15.431199, 55.5892)"><g><path d="M 17.1875 -16.34375 L 17.1875 0 L 12.5625 0 L 12.5625 -6.375 L 6.25 -6.375 L 6.25 0 L 1.640625 0 L 1.640625 -16.34375 L 6.25 -16.34375 L 6.25 -10.203125 L 12.5625 -10.203125 L 12.5625 -16.34375 Z M 17.1875 -16.34375 "/></g></g></g><g fill="#c79a45" fill-opacity="1"><g transform="translate(34.248884, 55.5892)"><g><path d="M 14.75 -3.578125 L 14.75 0 L 1.640625 0 L 1.640625 -16.34375 L 14.453125 -16.34375 L 14.453125 -12.765625 L 6.203125 -12.765625 L 6.203125 -10.015625 L 13.46875 -10.015625 L 13.46875 -6.5625 L 6.203125 -6.5625 L 6.203125 -3.578125 Z M 14.75 -3.578125 "/></g></g></g><g fill="#c79a45" fill-opacity="1"><g transform="translate(49.938065, 55.5892)"><g/></g></g><g fill="#c79a45" fill-opacity="1"><g transform="translate(56.732044, 55.5892)"><g><path d="M 1.640625 -16.34375 L 6.25 -16.34375 L 6.25 0 L 1.640625 0 Z M 1.640625 -16.34375 "/></g></g></g><g fill="#c79a45" fill-opacity="1"><g transform="translate(64.646679, 55.5892)"><g><path d="M 17.1875 -16.34375 L 17.1875 0 L 13.375 0 L 6.15625 -8.703125 L 6.15625 0 L 1.640625 0 L 1.640625 -16.34375 L 5.4375 -16.34375 L 12.65625 -7.640625 L 12.65625 -16.34375 Z M 17.1875 -16.34375 "/></g></g></g><g fill="#c79a45" fill-opacity="1"><g transform="translate(83.464363, 55.5892)"><g><path d="M 1.640625 -16.34375 L 9.359375 -16.34375 C 11.148438 -16.34375 12.738281 -16.003906 14.125 -15.328125 C 15.507812 -14.660156 16.582031 -13.710938 17.34375 -12.484375 C 18.101562 -11.253906 18.484375 -9.816406 18.484375 -8.171875 C 18.484375 -6.523438 18.101562 -5.082031 17.34375 -3.84375 C 16.582031 -2.613281 15.507812 -1.664062 14.125 -1 C 12.738281 -0.332031 11.148438 0 9.359375 0 L 1.640625 0 Z M 9.171875 -3.6875 C 10.578125 -3.6875 11.703125 -4.082031 12.546875 -4.875 C 13.390625 -5.664062 13.8125 -6.765625 13.8125 -8.171875 C 13.8125 -9.566406 13.390625 -10.660156 12.546875 -11.453125 C 11.703125 -12.253906 10.578125 -12.65625 9.171875 -12.65625 L 6.25 -12.65625 L 6.25 -3.6875 Z M 9.171875 -3.6875 "/></g></g></g><g fill="#c79a45" fill-opacity="1"><g transform="translate(102.748978, 55.5892)"><g><path d="M 9.875 0.328125 C 8.144531 0.328125 6.59375 -0.0351562 5.21875 -0.765625 C 3.84375 -1.503906 2.757812 -2.519531 1.96875 -3.8125 C 1.1875 -5.101562 0.796875 -6.554688 0.796875 -8.171875 C 0.796875 -9.785156 1.1875 -11.238281 1.96875 -12.53125 C 2.757812 -13.820312 3.84375 -14.832031 5.21875 -15.5625 C 6.59375 -16.300781 8.144531 -16.671875 9.875 -16.671875 C 11.601562 -16.671875 13.15625 -16.300781 14.53125 -15.5625 C 15.90625 -14.832031 16.984375 -13.820312 17.765625 -12.53125 C 18.554688 -11.238281 18.953125 -9.785156 18.953125 -8.171875 C 18.953125 -6.554688 18.554688 -5.101562 17.765625 -3.8125 C 16.984375 -2.519531 15.90625 -1.503906 14.53125 -0.765625 C 13.15625 -0.0351562 11.601562 0.328125 9.875 0.328125 Z M 9.875 -3.5 C 10.695312 -3.5 11.441406 -3.691406 12.109375 -4.078125 C 12.785156 -4.472656 13.316406 -5.023438 13.703125 -5.734375 C 14.085938 -6.441406 14.28125 -7.253906 14.28125 -8.171875 C 14.28125 -9.085938 14.085938 -9.898438 13.703125 -10.609375 C 13.316406 -11.316406 12.785156 -11.863281 12.109375 -12.25 C 11.441406 -12.644531 10.695312 -12.84375 9.875 -12.84375 C 9.050781 -12.84375 8.300781 -12.644531 7.625 -12.25 C 6.957031 -11.863281 6.429688 -11.316406 6.046875 -10.609375 C 5.660156 -9.898438 5.46875 -9.085938 5.46875 -8.171875 C 5.46875 -7.253906 5.660156 -6.441406 6.046875 -5.734375 C 6.429688 -5.023438 6.957031 -4.472656 7.625 -4.078125 C 8.300781 -3.691406 9.050781 -3.5 9.875 -3.5 Z M 9.875 -3.5 "/></g></g></g><g fill="#c79a45" fill-opacity="1"><g transform="translate(122.500536, 55.5892)"><g/></g></g><g fill="#c79a45" fill-opacity="1"><g transform="translate(129.294515, 55.5892)"><g><path d="M 5.109375 -12.671875 L 0.09375 -12.671875 L 0.09375 -16.34375 L 14.734375 -16.34375 L 14.734375 -12.671875 L 9.734375 -12.671875 L 9.734375 0 L 5.109375 0 Z M 5.109375 -12.671875 "/></g></g></g><g fill="#c79a45" fill-opacity="1"><g transform="translate(144.119854, 55.5892)"><g><path d="M 14.75 -3.578125 L 14.75 0 L 1.640625 0 L 1.640625 -16.34375 L 14.453125 -16.34375 L 14.453125 -12.765625 L 6.203125 -12.765625 L 6.203125 -10.015625 L 13.46875 -10.015625 L 13.46875 -6.5625 L 6.203125 -6.5625 L 6.203125 -3.578125 Z M 14.75 -3.578125 "/></g></g></g><g fill="#c79a45" fill-opacity="1"><g transform="translate(159.809035, 55.5892)"><g><path d="M 7.9375 -5.921875 L 6.203125 -4.078125 L 6.203125 0 L 1.640625 0 L 1.640625 -16.34375 L 6.203125 -16.34375 L 6.203125 -9.546875 L 12.53125 -16.34375 L 17.625 -16.34375 L 10.953125 -9.109375 L 17.96875 0 L 12.609375 0 Z M 7.9375 -5.921875 "/></g></g></g><g fill="#c79a45" fill-opacity="1"><g transform="translate(177.365977, 55.5892)"><g><path d="M 17.1875 -16.34375 L 17.1875 0 L 13.375 0 L 6.15625 -8.703125 L 6.15625 0 L 1.640625 0 L 1.640625 -16.34375 L 5.4375 -16.34375 L 12.65625 -7.640625 L 12.65625 -16.34375 Z M 17.1875 -16.34375 "/></g></g></g><g fill="#c79a45" fill-opacity="1"><g transform="translate(196.183661, 55.5892)"><g><path d="M 1.640625 -16.34375 L 6.25 -16.34375 L 6.25 0 L 1.640625 0 Z M 1.640625 -16.34375 "/></g></g></g><g fill="#c79a45" fill-opacity="1"><g transform="translate(204.098296, 55.5892)"><g><path d="M 7.9375 -5.921875 L 6.203125 -4.078125 L 6.203125 0 L 1.640625 0 L 1.640625 -16.34375 L 6.203125 -16.34375 L 6.203125 -9.546875 L 12.53125 -16.34375 L 17.625 -16.34375 L 10.953125 -9.109375 L 17.96875 0 L 12.609375 0 Z M 7.9375 -5.921875 "/></g></g></g><g fill="#c79a45" fill-opacity="1"><g transform="translate(221.655237, 55.5892)"><g/></g></g><g fill="#c79a45" fill-opacity="1"><g transform="translate(228.449216, 55.5892)"><g><path d="M 1.640625 -16.34375 L 6.25 -16.34375 L 6.25 -3.671875 L 14.046875 -3.671875 L 14.046875 0 L 1.640625 0 Z M 1.640625 -16.34375 "/></g></g></g><g fill="#c79a45" fill-opacity="1"><g transform="translate(242.690886, 55.5892)"><g><path d="M 14.75 -3.578125 L 14.75 0 L 1.640625 0 L 1.640625 -16.34375 L 14.453125 -16.34375 L 14.453125 -12.765625 L 6.203125 -12.765625 L 6.203125 -10.015625 L 13.46875 -10.015625 L 13.46875 -6.5625 L 6.203125 -6.5625 L 6.203125 -3.578125 Z M 14.75 -3.578125 "/></g></g></g><g fill="#c79a45" fill-opacity="1"><g transform="translate(258.356734, 55.5892)"><g><path d="M 12.578125 -8.515625 L 16.671875 -8.515625 L 16.671875 -1.75 C 15.734375 -1.082031 14.65625 -0.566406 13.4375 -0.203125 C 12.226562 0.148438 11.015625 0.328125 9.796875 0.328125 C 8.085938 0.328125 6.546875 -0.03125 5.171875 -0.75 C 3.804688 -1.476562 2.734375 -2.488281 1.953125 -3.78125 C 1.179688 -5.070312 0.796875 -6.535156 0.796875 -8.171875 C 0.796875 -9.804688 1.179688 -11.269531 1.953125 -12.5625 C 2.734375 -13.851562 3.816406 -14.859375 5.203125 -15.578125 C 6.585938 -16.304688 8.148438 -16.671875 9.890625 -16.671875 C 11.421875 -16.671875 12.789062 -16.410156 14 -15.890625 C 15.21875 -15.378906 16.234375 -14.640625 17.046875 -13.671875 L 14.09375 -11.015625 C 12.988281 -12.234375 11.664062 -12.84375 10.125 -12.84375 C 8.726562 -12.84375 7.601562 -12.414062 6.75 -11.5625 C 5.894531 -10.71875 5.46875 -9.585938 5.46875 -8.171875 C 5.46875 -7.265625 5.660156 -6.457031 6.046875 -5.75 C 6.429688 -5.039062 6.972656 -4.488281 7.671875 -4.09375 C 8.378906 -3.695312 9.179688 -3.5 10.078125 -3.5 C 10.972656 -3.5 11.804688 -3.675781 12.578125 -4.03125 Z M 12.578125 -8.515625 "/></g></g></g><g fill="#c79a45" fill-opacity="1"><g transform="translate(276.333897, 55.5892)"><g><path d="M 12.578125 -3.171875 L 5.671875 -3.171875 L 4.390625 0 L -0.328125 0 L 6.890625 -16.34375 L 11.4375 -16.34375 L 18.671875 0 L 13.859375 0 Z M 11.234375 -6.578125 L 9.125 -11.8125 L 7.03125 -6.578125 Z M 11.234375 -6.578125 "/></g></g></g><g fill="#c79a45" fill-opacity="1"><g transform="translate(294.451147, 55.5892)"><g><path d="M 9.78125 0.328125 C 8.070312 0.328125 6.535156 -0.03125 5.171875 -0.75 C 3.804688 -1.476562 2.734375 -2.488281 1.953125 -3.78125 C 1.179688 -5.070312 0.796875 -6.535156 0.796875 -8.171875 C 0.796875 -9.804688 1.179688 -11.269531 1.953125 -12.5625 C 2.734375 -13.851562 3.804688 -14.859375 5.171875 -15.578125 C 6.535156 -16.304688 8.070312 -16.671875 9.78125 -16.671875 C 11.269531 -16.671875 12.613281 -16.40625 13.8125 -15.875 C 15.007812 -15.34375 16.007812 -14.582031 16.8125 -13.59375 L 13.859375 -10.921875 C 12.804688 -12.203125 11.523438 -12.84375 10.015625 -12.84375 C 9.128906 -12.84375 8.335938 -12.644531 7.640625 -12.25 C 6.953125 -11.863281 6.414062 -11.316406 6.03125 -10.609375 C 5.65625 -9.898438 5.46875 -9.085938 5.46875 -8.171875 C 5.46875 -7.253906 5.65625 -6.441406 6.03125 -5.734375 C 6.414062 -5.023438 6.953125 -4.472656 7.640625 -4.078125 C 8.335938 -3.691406 9.128906 -3.5 10.015625 -3.5 C 11.523438 -3.5 12.804688 -4.140625 13.859375 -5.421875 L 16.8125 -2.75 C 16.007812 -1.757812 15.007812 -1 13.8125 -0.46875 C 12.613281 0.0625 11.269531 0.328125 9.78125 0.328125 Z M 9.78125 0.328125 "/></g></g></g><g fill="#c79a45" fill-opacity="1"><g transform="translate(311.611176, 55.5892)"><g><path d="M 10.390625 -5.859375 L 10.390625 0 L 5.765625 0 L 5.765625 -5.921875 L -0.46875 -16.34375 L 4.40625 -16.34375 L 8.28125 -9.84375 L 12.15625 -16.34375 L 16.640625 -16.34375 Z M 10.390625 -5.859375 "/></g></g></g></g></g><g fill="#b0873a" fill-opacity="0.4"><g transform="translate(385.360698, 147.839889)"><g><path d="M 11.375 -28.203125 L 0.203125 -28.203125 L 0.203125 -36.359375 L 32.78125 -36.359375 L 32.78125 -28.203125 L 21.671875 -28.203125 L 21.671875 0 L 11.375 0 Z M 11.375 -28.203125 "/></g></g></g><g fill="#b0873a" fill-opacity="0.4"><g transform="translate(418.348287, 147.839889)"><g><path d="M 38.234375 -36.359375 L 38.234375 0 L 27.953125 0 L 27.953125 -14.1875 L 13.921875 -14.1875 L 13.921875 0 L 3.640625 0 L 3.640625 -36.359375 L 13.921875 -36.359375 L 13.921875 -22.703125 L 27.953125 -22.703125 L 27.953125 -36.359375 Z M 38.234375 -36.359375 "/></g></g></g><g fill="#c79a45" fill-opacity="1"><g transform="translate(384.212686, 146.691884)"><g><path d="M 11.375 -28.203125 L 0.203125 -28.203125 L 0.203125 -36.359375 L 32.78125 -36.359375 L 32.78125 -28.203125 L 21.671875 -28.203125 L 21.671875 0 L 11.375 0 Z M 11.375 -28.203125 "/></g></g></g><g fill="#c79a45" fill-opacity="1"><g transform="translate(417.200275, 146.691884)"><g><path d="M 38.234375 -36.359375 L 38.234375 0 L 27.953125 0 L 27.953125 -14.1875 L 13.921875 -14.1875 L 13.921875 0 L 3.640625 0 L 3.640625 -36.359375 L 13.921875 -36.359375 L 13.921875 -22.703125 L 27.953125 -22.703125 L 27.953125 -36.359375 Z M 38.234375 -36.359375 "/></g></g></g></svg>